<?xml version="1.0" encoding="UTF-8" standalone="no"?>
<!-- Created with Inkscape (http://www.inkscape.org/) -->

<svg
   xmlns:dc="http://purl.org/dc/elements/1.1/"
   xmlns:cc="http://creativecommons.org/ns#"
   xmlns:rdf="http://www.w3.org/1999/02/22-rdf-syntax-ns#"
   xmlns:svg="http://www.w3.org/2000/svg"
   xmlns="http://www.w3.org/2000/svg"
   xmlns:sodipodi="http://sodipodi.sourceforge.net/DTD/sodipodi-0.dtd"
   xmlns:inkscape="http://www.inkscape.org/namespaces/inkscape"
   width="68"
   height="43"
   viewBox="0 0 17.991666 11.377086"
   version="1.1"
   id="svg8"
   inkscape:version="0.92.3 (2405546, 2018-03-11)"
   sodipodi:docname="icon-tripadvisor.svg">
  <defs
     id="defs2" />
  <sodipodi:namedview
     id="base"
     pagecolor="#ffffff"
     bordercolor="#666666"
     borderopacity="1.0"
     inkscape:pageopacity="0.0"
     inkscape:pageshadow="2"
     inkscape:zoom="11.2"
     inkscape:cx="41.838924"
     inkscape:cy="28.289128"
     inkscape:document-units="mm"
     inkscape:current-layer="layer1"
     showgrid="false"
     units="px"
     inkscape:window-width="1920"
     inkscape:window-height="1023"
     inkscape:window-x="0"
     inkscape:window-y="0"
     inkscape:window-maximized="1" />
  <metadata
     id="metadata5">
    <rdf:RDF>
      <cc:Work
         rdf:about="">
        <dc:format>image/svg+xml</dc:format>
        <dc:type
           rdf:resource="http://purl.org/dc/dcmitype/StillImage" />
        <dc:title></dc:title>
      </cc:Work>
    </rdf:RDF>
  </metadata>
  <g
     inkscape:label="Camada 1"
     inkscape:groupmode="layer"
     id="layer1"
     transform="translate(0,-285.62288)">
    <path
       style="fill:#ffffff;stroke-width:0.04792388"
       d="m 4.0992493,296.35213 c -0.7706741,-0.16512 -1.5397198,-0.57592 -2.1221901,-1.1336 -0.5545201,-0.53092 -0.952086,-1.19209 -1.19296613,-1.98396 -0.11382112,-0.37417 -0.12835008,-0.50138 -0.13021064,-1.14003 -0.002928,-1.00545 0.17609164,-1.64913 0.66618297,-2.39531 0.1179807,-0.17963 0.2145102,-0.35957 0.2145102,-0.39986 0,-0.12479 -0.3625066,-0.82732 -0.64109713,-1.24241 l -0.2653504,-0.39538 H 2.0309241 3.4337195 l 0.6501246,-0.32807 c 0.6979003,-0.35218 1.6982786,-0.70706 2.4367083,-0.86443 1.5880966,-0.33845 3.4540001,-0.33806 5.0282226,10e-4 0.921915,0.19859 2.23214,0.69315 2.816469,1.06311 l 0.202724,0.12835 h 1.436615 1.436615 l -0.265349,0.39537 c -0.280801,0.41839 -0.641098,1.11792 -0.641098,1.24471 0,0.0415 0.07848,0.19093 0.174392,0.33196 0.240333,0.35337 0.474724,0.87834 0.601711,1.34763 0.150212,0.55515 0.149039,1.60778 -0.0024,2.16761 -0.115654,0.4275 -0.402945,1.05991 -0.634144,1.39594 -0.44987,0.65387 -1.283239,1.3169 -2.004137,1.5945 -0.992326,0.38213 -2.145298,0.39623 -3.13136,0.0383 -0.477299,-0.17325 -1.016625,-0.50039 -1.382034,-0.83831 l -0.3261375,-0.30159 -0.3740169,0.49677 c -0.2057107,0.27323 -0.3886458,0.506 -0.406525,0.51726 -0.017881,0.0113 -0.2079499,-0.21255 -0.4223764,-0.49736 l -0.3898672,-0.51782 -0.3070002,0.28717 c -0.5251443,0.49125 -1.2861607,0.87846 -2.0368455,1.03638 -0.4320626,0.0909 -1.3523622,0.0868 -1.7947426,-0.008 z m 1.9316573,-0.81403 c 0.4702288,-0.13492 0.6961059,-0.24314 1.0901773,-0.52232 1.4428941,-1.02221 1.9396713,-3.00017 1.1482271,-4.57177 -0.3459486,-0.68696 -0.9033526,-1.26155 -1.5528379,-1.60071 -1.1298089,-0.58998 -2.568583,-0.54154 -3.6193525,0.12185 -0.3480293,0.21972 -0.9045585,0.76868 -1.1298654,1.1145 -1.07488993,1.6498 -0.6132724,3.90276 1.0202025,4.97919 0.5591648,0.36847 1.0164848,0.53294 1.7340572,0.62363 0.2899832,0.0367 0.9209912,-0.0329 1.3093917,-0.14437 z m -1.3333552,-1.29512 c -0.2312629,-0.0367 -0.6968205,-0.22185 -0.8886966,-0.35331 -0.3318454,-0.22734 -0.5953708,-0.53509 -0.7743722,-0.90433 -0.3013075,-0.62153 -0.2739805,-1.42314 0.068657,-2.01398 0.6165146,-1.06312 1.9842354,-1.42445 3.0430627,-0.80394 0.5089834,0.29828 0.9376052,0.94054 1.0424246,1.56198 0.2380918,1.41156 -1.0768857,2.73842 -2.4910773,2.51358 z m 0.9297001,-0.88122 c 0.2805918,-0.13189 0.564186,-0.41607 0.7033321,-0.70479 0.1672733,-0.34707 0.1596206,-0.85738 -0.018292,-1.21968 -0.1608865,-0.32763 -0.4819569,-0.62491 -0.7872672,-0.72894 -0.121844,-0.0416 -0.36521,-0.0755 -0.5408116,-0.0755 -0.2602107,0 -0.3735285,0.0271 -0.6125529,0.14655 -0.3355066,0.16765 -0.5022216,0.34408 -0.6699606,0.70899 -0.1028125,0.22366 -0.115177,0.30646 -0.096615,0.64697 0.023583,0.43262 0.091233,0.60134 0.3607381,0.89965 0.4079723,0.45157 1.1044505,0.58854 1.6614293,0.32673 z m -0.9781109,-0.68015 c -0.4747621,-0.32312 -0.502149,-0.88478 -0.059602,-1.22232 0.1298537,-0.0991 0.2215955,-0.12718 0.4209285,-0.12909 0.2880745,-0.003 0.4514497,0.0898 0.63785,0.3614 0.1414842,0.20614 0.1273177,0.57503 -0.030603,0.7968 -0.2134527,0.29976 -0.6763439,0.3921 -0.9685766,0.19321 z m 9.3281834,2.88438 c 0.94134,-0.23697 1.83273,-0.94344 2.286262,-1.81195 0.256211,-0.49065 0.37227,-0.92236 0.401626,-1.49396 0.05469,-1.06495 -0.280128,-1.96794 -1.009734,-2.72318 -0.750703,-0.77708 -1.711139,-1.15159 -2.808669,-1.09523 -1.32557,0.0681 -2.440244,0.80002 -3.0451815,1.99958 -0.432789,0.8582 -0.4996046,1.79855 -0.1958481,2.75636 0.1741111,0.54901 0.4255366,0.94791 0.8905626,1.41294 0.464341,0.46434 0.862439,0.7155 1.413756,0.89192 0.686787,0.21979 1.363864,0.24059 2.067226,0.0635 z m -1.408219,-1.36359 c -0.404718,-0.0879 -0.75007,-0.28156 -1.06656,-0.59806 -0.619418,-0.61941 -0.815437,-1.48995 -0.516785,-2.2951 0.324864,-0.8758 1.140418,-1.44316 2.074511,-1.44316 1.692819,0 2.740018,1.84881 1.879198,3.31769 -0.284283,0.48509 -0.934066,0.93231 -1.514537,1.04239 -0.325727,0.0618 -0.482077,0.0574 -0.855827,-0.0238 z m 1.082162,-0.83898 c 0.30808,-0.13253 0.640839,-0.48847 0.746461,-0.79846 0.114556,-0.33619 0.09894,-0.80331 -0.03654,-1.09342 -0.163357,-0.3498 -0.333383,-0.52715 -0.663515,-0.69212 -0.534346,-0.26702 -1.17068,-0.18186 -1.613052,0.21587 -0.524595,0.47166 -0.624913,1.25222 -0.238358,1.85461 0.375755,0.58557 1.135256,0.80164 1.805009,0.51352 z m -0.93997,-0.65368 c -0.360194,-0.17753 -0.509005,-0.69947 -0.290287,-1.01814 0.254226,-0.37041 0.587542,-0.46961 0.950766,-0.28296 0.394859,0.2029 0.541291,0.71345 0.298626,1.04118 -0.237394,0.32062 -0.623602,0.42528 -0.959105,0.25992 z m -2.9203105,-3.58588 c 0.6836765,-0.76203 1.6343355,-1.2655 2.6787475,-1.41866 l 0.39884,-0.0585 -0.407352,-0.13866 c -1.072595,-0.36509 -2.135971,-0.52891 -3.4265572,-0.52785 -1.3035988,0.001 -2.197424,0.13332 -3.2827872,0.48576 l -0.5511245,0.17896 0.3988402,0.0594 c 1.3833337,0.20597 2.6375709,1.06318 3.2439127,2.21705 l 0.1739823,0.33108 0.2482073,-0.40987 c 0.1365138,-0.22543 0.3728956,-0.54885 0.5252909,-0.71871 z"
       id="path21"
       inkscape:connector-curvature="0" />
  </g>
</svg>
