<?xml version="1.0" encoding="UTF-8" standalone="no"?>
<svg
   xmlns:dc="http://purl.org/dc/elements/1.1/"
   xmlns:cc="http://creativecommons.org/ns#"
   xmlns:rdf="http://www.w3.org/1999/02/22-rdf-syntax-ns#"
   xmlns:svg="http://www.w3.org/2000/svg"
   xmlns="http://www.w3.org/2000/svg"
   xmlns:sodipodi="http://sodipodi.sourceforge.net/DTD/sodipodi-0.dtd"
   xmlns:inkscape="http://www.inkscape.org/namespaces/inkscape"
   width="24"
   height="24"
   viewBox="0 0 24 24"
   version="1.1"
   id="svg4"
   sodipodi:docname="iconmonstr-youtube-9.svg"
   inkscape:version="0.92.3 (2405546, 2018-03-11)">
  <metadata
     id="metadata10">
    <rdf:RDF>
      <cc:Work
         rdf:about="">
        <dc:format>image/svg+xml</dc:format>
        <dc:type
           rdf:resource="http://purl.org/dc/dcmitype/StillImage" />
      </cc:Work>
    </rdf:RDF>
  </metadata>
  <defs
     id="defs8" />
  <sodipodi:namedview
     pagecolor="#ffffff"
     bordercolor="#666666"
     borderopacity="1"
     objecttolerance="10"
     gridtolerance="10"
     guidetolerance="10"
     inkscape:pageopacity="0"
     inkscape:pageshadow="2"
     inkscape:window-width="1920"
     inkscape:window-height="1023"
     id="namedview6"
     showgrid="false"
     inkscape:zoom="9.8333333"
     inkscape:cx="12.61017"
     inkscape:cy="11.491525"
     inkscape:window-x="0"
     inkscape:window-y="0"
     inkscape:window-maximized="1"
     inkscape:current-layer="svg4" />
  <path
     d="M12 0c-6.627 0-12 5.373-12 12s5.373 12 12 12 12-5.373 12-12-5.373-12-12-12zm4.441 16.892c-2.102.144-6.784.144-8.883 0-2.276-.156-2.541-1.27-2.558-4.892.017-3.629.285-4.736 2.558-4.892 2.099-.144 6.782-.144 8.883 0 2.277.156 2.541 1.27 2.559 4.892-.018 3.629-.285 4.736-2.559 4.892zm-6.441-7.234l4.917 2.338-4.917 2.346v-4.684z"
     id="path2"
     style="fill:#ffffff" />
  <path
     style="fill:#ffffff;fill-opacity:1;stroke-width:0.10169491"
     d="M 10.455093,23.857566 C 4.4944753,23.016941 0.06101695,17.965549 0.06101695,12.014769 c 0,-6.6007662 5.35092625,-11.95375205 11.94915205,-11.95375205 5.575953,0 10.461157,3.93262325 11.654478,9.38193565 0.682188,3.1152164 0.06873,6.4341544 -1.686895,9.1265394 -0.586485,0.899415 -2.403066,2.752073 -3.220451,3.284408 -1.467625,0.955812 -2.797624,1.520493 -4.373813,1.857 -0.897316,0.191571 -3.04218,0.271649 -3.928395,0.146666 z m 6.711971,-7.017656 c 1.50264,-0.362821 1.849484,-1.278291 1.84911,-4.880588 C 19.01587,9.0299301 18.788621,8.0660865 17.967837,7.5129605 17.271405,7.0436348 17.068874,7.0271186 12.010169,7.0271186 c -4.2224161,0 -4.8450427,0.020268 -5.3404647,0.173847 C 6.002081,7.407926 5.5256599,7.8573025 5.3021013,8.4909354 4.8253172,9.8422857 4.8231509,14.088088 5.2985155,15.519278 c 0.3046579,0.917239 0.990842,1.311074 2.491315,1.42989 1.4478755,0.11465 8.8049175,0.02893 9.3772335,-0.109258 z"
     id="path16"
     inkscape:connector-curvature="0" />
  <path
     style="fill:#ffffff;fill-opacity:1;stroke-width:0.10169491"
     d="M 10.027119,12.005254 V 9.7304303 l 1.398305,0.6621717 c 0.769068,0.364194 1.842262,0.877136 2.384876,1.13987 l 0.986572,0.477697 -2.384877,1.134954 -2.384876,1.134954 z"
     id="path18"
     inkscape:connector-curvature="0" />
</svg>
