<svg width="985" height="411" viewBox="0 0 985 411" fill="none" xmlns="http://www.w3.org/2000/svg">
<path fill-rule="evenodd" clip-rule="evenodd" d="M895.873 1.51109C892.893 2.31209 888.13 4.29809 885.288 5.92409C882.445 7.55109 877.774 11.3621 874.906 14.3941C872.039 17.4251 868.365 22.7431 866.743 26.2101C864.915 30.1151 863.413 35.5081 862.795 40.3811C862.247 44.7081 861.579 48.4671 861.312 48.7341C861.045 49.0011 857.151 47.7671 852.658 45.9921C848.166 44.2171 841.07 41.8181 836.89 40.6611C830.355 38.8521 826.417 38.5471 808.79 38.4901C792.335 38.4361 786.613 38.7901 779.79 40.2831C775.115 41.3051 767.749 43.4311 763.421 45.0061C759.094 46.5811 752.651 49.4651 749.105 51.4141C745.558 53.3641 740.099 56.8441 736.973 59.1481C733.847 61.4521 728.027 66.6911 724.04 70.7911C720.053 74.8901 716.79 78.6211 716.79 79.0831C716.79 79.5451 716.288 79.9231 715.674 79.9231C715.06 79.9231 711.834 77.4021 708.506 74.3211C705.178 71.2401 699.268 66.3371 695.373 63.4251C691.477 60.5141 684.245 55.8271 679.302 53.0101C674.358 50.1931 665.727 46.0951 660.122 43.9041C654.516 41.7121 646.186 39.0381 641.61 37.9621C637.034 36.8861 628.34 35.5071 622.29 34.8971C616.224 34.2861 607.028 34.0881 601.79 34.4551C596.565 34.8221 587.34 35.9571 581.29 36.9791C575.24 38.0001 566.015 40.2621 560.79 42.0041C555.565 43.7461 547.24 47.2011 542.29 49.6821C537.34 52.1621 530.59 56.0031 527.29 58.2171C523.99 60.4311 517.593 65.3561 513.074 69.1621C508.555 72.9681 503.465 77.6691 501.762 79.6081C500.06 81.5471 498.546 82.9731 498.398 82.7781C498.25 82.5831 496.408 79.3001 494.305 75.4841C492.172 71.6141 487.563 65.6311 483.885 61.9581C479.181 57.2611 474.71 54.0481 468.29 50.7541C463.34 48.2141 455.015 44.7801 449.79 43.1231C444.565 41.4671 435.621 39.3351 429.914 38.3861C421.651 37.0121 415.95 36.7741 401.914 37.2201C389.753 37.6051 381.322 38.4171 374.713 39.8361C369.446 40.9681 361.571 43.0541 357.213 44.4721C352.855 45.8901 345.034 49.0621 339.833 51.5211C334.632 53.9801 326.082 58.8621 320.833 62.3691C315.584 65.8771 307.803 71.9741 303.54 75.9181C299.278 79.8621 295.371 82.9401 294.859 82.7561C294.347 82.5731 291.294 79.2731 288.075 75.4231C284.855 71.5731 278.431 65.3781 273.799 61.6561C269.02 57.8161 261.032 52.7481 255.334 49.9391C249.81 47.2161 241.316 43.8521 236.458 42.4641C231.6 41.0761 224.85 39.4901 221.458 38.9391C218.066 38.3891 209.44 37.9441 202.29 37.9501C195.14 37.9571 186.14 38.4101 182.29 38.9581C178.44 39.5051 171.721 40.8711 167.358 41.9921C162.996 43.1131 156.246 45.3821 152.358 47.0341C148.471 48.6861 141.952 52.1161 137.873 54.6551C133.794 57.1951 127.371 62.1841 123.6 65.7411C119.829 69.2991 116.605 72.0331 116.436 71.8161C116.268 71.6001 115.569 68.8281 114.884 65.6571C114.2 62.4851 112.107 56.8281 110.234 53.0841C107.992 48.6021 104.676 44.2101 100.524 40.2231C97.0563 36.8931 91.3743 32.7321 87.8983 30.9771C84.4213 29.2221 78.1783 26.9171 74.0243 25.8551C69.1133 24.5991 63.0833 23.9231 56.7903 23.9231C50.4193 23.9231 44.4663 24.5991 39.3753 25.9011C35.1213 26.9891 29.3423 29.1271 26.5313 30.6511C23.7213 32.1761 19.1053 35.5371 16.2733 38.1201C13.4413 40.7041 9.74229 45.4291 8.05329 48.6201C6.36329 51.8121 4.21929 56.8981 3.28729 59.9231C1.94629 64.2781 1.39629 72.2921 0.643293 98.4231C0.120293 116.573 -0.136707 168.773 0.073293 214.423C0.414293 288.722 0.635293 298.193 2.18229 304.764C3.13329 308.802 5.28529 316.002 6.96529 320.764C8.64529 325.527 11.5923 332.573 13.5143 336.423C15.4353 340.273 19.5293 347.248 22.6113 351.923C25.6943 356.598 32.4903 364.838 37.7143 370.235C42.9383 375.631 50.1543 382.211 53.7513 384.858C57.3473 387.504 63.8903 391.742 68.2903 394.277C72.6903 396.811 81.0153 400.662 86.7903 402.834C92.5653 405.006 101.861 407.715 107.447 408.853L117.604 410.923H503.516C853.862 410.923 889.928 410.776 894.858 409.328C897.846 408.45 901.865 406.805 903.79 405.671C905.715 404.537 908.795 402.217 910.635 400.516C912.475 398.815 915.258 395.586 916.819 393.34C918.379 391.094 920.586 386.496 921.723 383.122C923.766 377.057 923.79 375.615 923.79 258.875V140.764L927.04 141.594C928.828 142.05 934.79 142.423 940.29 142.423C949.727 142.423 950.718 142.218 957.905 138.787C962.922 136.39 967.415 133.254 971.077 129.593C974.365 126.305 977.869 121.449 979.657 117.701C981.32 114.218 983.144 109.355 983.711 106.895C984.277 104.435 984.752 99.9301 984.766 96.8831C984.779 93.8361 984.1 88.6951 983.257 85.4581C982.414 82.2211 980.501 77.3131 979.007 74.5511C977.513 71.7881 974.04 67.2251 971.29 64.4091C968.424 61.4751 963.663 58.0371 960.135 56.3561L953.981 53.4231L954.467 49.4231C954.735 47.2231 954.483 42.5541 953.907 39.0471C953.332 35.5401 951.517 29.7991 949.874 26.2881C948.231 22.7781 944.603 17.4911 941.812 14.5401C939.02 11.5881 933.995 7.71209 930.645 5.92609C927.294 4.14109 922.244 2.06509 919.422 1.31309C916.599 0.562094 911.365 -0.0289065 907.79 0.00109354C904.215 0.0300935 898.852 0.710094 895.873 1.51109Z" fill="white"/>
<path d="M22.9905 292.881C23.3779 298.905 26.7866 314.864 36.1026 331.579C40.1118 338.783 48.1689 351.508 61.8621 363.032C67.1496 367.487 72.747 371.419 78.6542 374.808C86.905 379.553 93.8194 382.168 96.4922 383.117C100.443 384.531 112.761 388.85 127.345 389.218C134.299 389.392 172.163 390.322 183.242 367.293C188.142 357.106 185.643 346.744 184.404 342.851C179.717 328.092 165.307 316.568 152.737 316.936C146.578 317.111 140.399 317.111 134.221 317.033C118.262 316.859 106.718 309.305 99.01 295.573C95.3688 289.104 94.6909 282.054 94.6909 274.772C94.7297 230.865 93.5676 140.28 94.8071 83.8227C94.9427 77.5668 94.6909 65.8879 86.8856 57.2498C73.5798 42.5301 42.6684 41.7941 30.1179 55.6616C23.9008 62.5373 23.5134 71.5628 23.3779 75.9206C21.0343 152.54 22.3901 269.853 22.3901 272.332C22.3901 277.232 22.3901 283.468 22.3901 283.468C22.3901 283.507 22.9711 292.455 22.9905 292.881Z" fill="#354D7E"/>
<path d="M439.094 216.842C432.199 216.842 425.343 216.765 418.487 216.862C413.722 216.92 409.19 216.048 405.065 213.666C395.148 207.933 389.377 199.624 389.319 187.849C389.299 185.699 389.396 183.549 389.299 181.399C388.718 166.95 401.888 153.064 416.686 152.482C430.553 151.921 444.382 151.998 458.133 153.916C467.469 155.213 472.562 161.004 473.395 170.32C474.054 177.835 473.628 185.369 474.17 192.904C475.758 215.274 482.944 235.591 495.92 253.874C499.155 258.426 499.271 259.355 495.61 263.558C477.249 284.592 454.531 298.304 427.009 303.359C390.578 310.041 357.187 302.527 327.748 279.943C301.194 259.568 285.119 232.55 280.528 199.276C271.638 134.819 313.512 75.4946 377.562 61.9563C403.438 56.4752 429.217 57.5985 453.833 67.9411C467.817 73.8289 477.482 84.2877 479.942 100.015C482.614 117.097 470.897 133.211 453.814 136.291C445.002 137.879 436.538 136.523 428.306 133.366C414.129 127.963 399.894 127.343 385.716 133.037C365.631 141.133 353.488 160.385 353.914 182.91C354.301 203.091 363.346 218.334 380.758 228.173C398.945 238.438 424.2 233.828 438.223 218.372C438.533 217.927 439.075 217.617 439.094 216.842Z" fill="#EA5139"/>
<path d="M705.268 103.036C699.768 96.2763 693.667 90.0979 686.888 84.6362C656.364 60.0388 621.656 51.5943 583.366 58.9929C555.553 64.3578 532.234 78.2059 513.815 99.8013C489.237 128.582 479.437 161.973 484.724 199.372C488.656 227.204 501.245 250.988 521.485 270.472C545.618 293.695 574.65 305.277 608.137 305.606C613.987 305.703 619.797 305.315 625.549 304.502C652.258 300.725 675.19 289.221 694.654 270.608C697.482 267.896 698.954 264.759 699.38 261.021C699.632 258.813 699.768 256.585 699.768 254.378C699.787 224.376 699.768 194.375 699.806 164.374C699.826 148.493 701.724 132.901 707.844 118.065C710.13 112.526 708.987 107.607 705.268 103.036ZM644.956 211.264C634.304 224.919 620.242 231.117 602.908 229.315C581.719 227.088 564.308 209.773 561.557 188.507C561.209 185.853 561.151 183.219 561.093 181.534C560.531 156.705 577.633 138.692 594.251 133.599C621.579 125.232 650.089 143.205 654.272 171.599C656.383 186.028 654.098 199.527 644.956 211.264Z" fill="#9FBA51"/>
<path d="M963.001 96.9932C962.981 111.829 949.075 123.644 935.072 120.68C931.683 119.964 928.564 118.492 925.524 116.884C913.941 110.744 903.521 102.939 893.256 94.8627C892.617 94.3591 891.842 93.9136 893.101 93.197C905.923 85.7403 918.764 78.3611 933.038 73.9065C947.235 69.4712 962.923 80.7047 963.001 96.9932Z" fill="#1197D5"/>
<path d="M906.173 22.0193C907.626 22.0193 909.078 22.0194 910.531 22C927.362 23.7819 937.356 41.0581 930.306 56.1652C928.504 60.0388 925.406 62.8859 922.229 65.5587C911.867 74.2937 900.285 81.1693 888.509 87.7738C888.335 87.8707 888.103 87.8706 887.793 87.9287C886.805 82.7575 886.185 77.5862 885.662 72.3956C884.733 63.2539 884.171 54.1122 884.616 44.893C885.333 30.2508 896.47 22.9296 906.173 22.0193Z" fill="#1197D5"/>
<path d="M901.777 213.782C901.777 197.068 901.893 180.334 901.738 163.619C901.602 148.628 899.724 133.85 894.552 119.692C885.721 95.5018 870.226 77.3152 846.268 67.0889C828.353 59.4385 809.488 58.257 790.488 61.0267C757.485 65.8299 734.786 84.3651 721.673 114.773C714.682 130.965 712.57 148.163 712.532 165.653C712.474 200.883 712.512 236.133 712.532 271.363C712.532 273.571 712.609 275.837 713.055 278.007C715.495 289.627 722.274 297.936 732.984 302.836C742.262 307.097 752.197 306.594 761.726 304.618C776.969 301.442 787.602 287.342 787.66 271.77C787.699 257.418 787.699 243.067 787.641 228.715C787.641 227.03 788.048 226.565 789.752 226.565C801.315 226.643 812.858 226.643 824.421 226.565C826.183 226.546 826.706 226.953 826.706 228.773C826.629 242.834 826.667 256.915 826.667 270.976C826.667 273.339 826.706 275.721 827.21 278.045C829.708 289.647 836.487 297.956 847.198 302.836C856.475 307.059 866.411 306.594 875.94 304.58C891.163 301.365 901.777 287.284 901.815 271.693C901.835 252.402 901.796 233.092 901.777 213.782C901.777 213.782 901.796 213.782 901.777 213.782ZM824.847 164.491C818.959 164.51 813.09 164.491 807.203 164.491C801.315 164.491 795.446 164.452 789.558 164.529C788.067 164.549 787.583 164.123 787.622 162.612C787.738 157.17 787.389 151.708 788.88 146.382C791.476 137.162 797.77 132.359 807.28 132.417C816.654 132.456 822.891 137.298 825.409 146.459C826.939 152.018 826.551 157.692 826.609 163.348C826.648 164.742 825.66 164.491 824.847 164.491Z" fill="#1197D5"/>
<path d="M295.904 264.546C295.962 263.248 295.594 262.222 294.781 261.215C290.656 255.966 286.995 250.388 283.819 244.5C269.951 218.779 265.167 191.432 269.506 162.535C271.985 145.975 277.524 130.461 286.065 116.051C286.53 115.257 286.763 114.599 286.356 113.688C277.001 92.5773 262.34 76.5794 240.938 67.3408C222.829 59.5161 203.79 58.296 184.558 61.0462C153.937 65.404 131.876 82.0024 118.125 109.544C110.572 124.67 107.26 140.978 106.911 157.77C106.504 177.003 106.814 196.235 106.814 215.467C106.776 215.467 106.737 215.467 106.698 215.467C106.698 234.274 106.679 253.08 106.698 271.887C106.717 285.386 113.322 294.973 124.633 301.675C133.755 307.078 143.865 306.323 153.588 305.083C168.966 303.127 182.04 288.078 181.749 271.674C181.497 257.322 181.73 242.97 181.652 228.618C181.652 227.011 182.059 226.585 183.667 226.585C195.287 226.662 206.928 226.662 218.548 226.585C220.311 226.565 220.834 227.011 220.834 228.831C220.756 243.338 220.989 257.825 220.737 272.332C220.505 286.335 231.234 300.687 246.09 304.677C251.455 306.129 256.936 305.393 262.359 305.587C276.982 306.129 291.624 294.295 295.052 279.363C296.253 274.443 295.711 269.485 295.904 264.546ZM220.853 163.329C220.853 164.704 219.885 164.491 219.033 164.491C213.067 164.491 207.121 164.491 201.156 164.491C195.346 164.491 189.535 164.433 183.705 164.53C182.04 164.568 181.672 164.045 181.691 162.457C181.769 156.937 181.517 151.398 183.066 146.014C185.623 137.163 191.917 132.437 201.137 132.398C210.433 132.359 216.67 136.949 219.323 145.82C221.066 151.553 220.834 157.46 220.853 163.329Z" fill="#F18537"/>
<path d="M312 330.376H330.768C333.557 330.376 335.978 330.821 338.031 331.732C340.084 332.642 341.827 333.823 343.202 335.315C344.577 336.806 345.642 338.491 346.32 340.389C347.017 342.287 347.366 344.205 347.366 346.161C347.366 348.156 347.017 350.093 346.32 351.971C345.623 353.85 344.577 355.516 343.202 356.968C341.807 358.421 340.084 359.602 338.031 360.513C335.978 361.423 333.576 361.868 330.845 361.868H317.772V379.59H312V330.376ZM330.768 356.019C332.569 356.019 334.157 355.748 335.532 355.186C336.907 354.625 338.031 353.889 338.941 352.959C339.851 352.029 340.51 350.984 340.955 349.802C341.401 348.621 341.614 347.4 341.614 346.161C341.614 344.902 341.381 343.701 340.916 342.52C340.452 341.338 339.774 340.273 338.863 339.324C337.953 338.375 336.83 337.62 335.493 337.058C334.157 336.496 332.569 336.225 330.768 336.225H317.772V356.039H330.768V356.019Z" fill="#354D7F"/>
<path d="M388.175 379.59H382.054L376.36 363.805H357.38C356.45 366.401 355.52 369.035 354.571 371.688C353.622 374.361 352.712 376.976 351.821 379.571H345.643L363.306 330.357H370.395L388.175 379.59ZM374.346 357.976C373.649 356.077 373.01 354.276 372.409 352.552C371.809 350.848 371.208 349.124 370.627 347.401C370.046 345.696 369.446 343.953 368.826 342.191C368.206 340.428 367.548 338.569 366.851 336.632C365.592 340.254 364.371 343.779 363.171 347.226C361.97 350.674 360.692 354.257 359.355 357.956H374.346V357.976Z" fill="#354D7F"/>
<path d="M399.369 359.486V379.571H393.539V330.357H412.307C414.67 330.357 416.878 330.628 418.911 331.19C420.945 331.751 422.707 332.623 424.199 333.804C425.69 334.986 426.871 336.496 427.743 338.356C428.615 340.215 429.079 342.462 429.138 345.096C429.138 347.556 428.75 349.667 427.995 351.429C427.239 353.192 426.174 354.644 424.838 355.768C423.501 356.91 421.913 357.782 420.073 358.382C418.233 358.983 416.277 359.331 414.205 359.428L430.048 379.59H422.882L406.961 359.506H399.369V359.486ZM412.365 354.083C414.03 354.083 415.541 353.928 416.878 353.637C418.214 353.327 419.376 352.843 420.325 352.146C421.274 351.448 422.01 350.519 422.514 349.357C423.017 348.195 423.269 346.781 423.269 345.115C423.269 343.411 422.998 341.978 422.475 340.835C421.933 339.692 421.197 338.782 420.209 338.085C419.24 337.387 418.078 336.903 416.742 336.632C415.406 336.361 413.934 336.225 412.365 336.225H399.369V354.083H412.365Z" fill="#354D7F"/>
<path d="M474.439 364.774C474.439 366.71 474.11 368.473 473.471 370.022C472.832 371.572 471.941 372.947 470.837 374.167L474.652 379.029L470.624 381.876L466.944 377.285C465.181 378.254 463.264 379.009 461.172 379.513C459.08 380.016 456.95 380.268 454.78 380.268C452.321 380.268 449.919 379.939 447.556 379.3C445.193 378.661 443.082 377.673 441.223 376.375C439.364 375.078 437.892 373.47 436.768 371.552C435.645 369.635 435.103 367.369 435.103 364.774V345.096C435.103 342.539 435.664 340.293 436.768 338.356C437.872 336.419 439.364 334.792 441.223 333.533C443.082 332.255 445.193 331.306 447.556 330.647C449.919 329.989 452.321 329.679 454.78 329.679C457.24 329.679 459.642 330.008 462.005 330.647C464.368 331.286 466.459 332.255 468.299 333.533C470.12 334.811 471.611 336.419 472.754 338.356C473.897 340.293 474.458 342.559 474.458 345.096V364.774H474.439ZM468.667 364.774V345.096C468.667 343.391 468.261 341.919 467.447 340.68C466.634 339.46 465.588 338.453 464.29 337.658C462.993 336.864 461.501 336.283 459.816 335.915C458.131 335.547 456.427 335.354 454.703 335.354C452.941 335.354 451.236 335.547 449.59 335.935C447.944 336.322 446.472 336.923 445.174 337.717C443.876 338.511 442.83 339.518 442.056 340.738C441.262 341.958 440.874 343.411 440.874 345.076V364.754C440.874 366.381 441.262 367.795 442.056 368.996C442.85 370.197 443.876 371.204 445.174 372.017C446.472 372.831 447.963 373.431 449.629 373.819C451.294 374.206 453.018 374.419 454.78 374.419C456.349 374.419 457.899 374.322 459.409 374.148C460.92 373.954 462.295 373.586 463.554 373.044L459.448 367.892L463.477 364.909L467.37 369.848C468.222 368.454 468.667 366.769 468.667 364.774Z" fill="#354D7F"/>
<path d="M488.831 364.561C488.831 366.226 489.199 367.679 489.935 368.899C490.671 370.119 491.639 371.165 492.859 371.998C494.06 372.831 495.435 373.451 496.965 373.838C498.495 374.225 500.064 374.438 501.691 374.438C503.26 374.438 504.829 374.245 506.378 373.838C507.927 373.451 509.303 372.831 510.523 371.998C511.724 371.165 512.692 370.139 513.447 368.899C514.183 367.679 514.551 366.226 514.551 364.561V330.357H520.4V364.561C520.4 367.156 519.858 369.441 518.793 371.398C517.728 373.373 516.314 375.019 514.551 376.336C512.789 377.653 510.794 378.641 508.547 379.3C506.301 379.958 504.015 380.268 501.691 380.268C499.328 380.268 497.043 379.939 494.815 379.3C492.588 378.661 490.593 377.673 488.831 376.336C487.068 375.019 485.654 373.373 484.589 371.398C483.524 369.422 482.981 367.156 482.981 364.561V330.357H488.811V364.561H488.831Z" fill="#354D7F"/>
<path d="M536.146 352.049H559.853V357.879H536.146V373.722H561.867V379.551H530.316V330.337H561.867V336.167H536.146V352.049Z" fill="#354D7F"/>
<path d="M573.817 343.643C573.817 344.902 574.069 345.89 574.592 346.626C575.231 347.556 576.122 348.311 577.265 348.892C578.408 349.473 579.705 349.918 581.197 350.248C582.669 350.577 584.237 350.887 585.845 351.216C587.975 351.642 590.106 352.107 592.236 352.649C594.367 353.192 596.265 353.986 597.931 355.09C599.596 356.174 600.913 357.646 601.882 359.506C602.714 361.133 603.141 363.186 603.141 365.684C603.141 366.052 603.141 366.42 603.141 366.788C603.005 369.054 602.405 371.049 601.359 372.734C600.313 374.419 598.957 375.833 597.291 376.937C595.626 378.041 593.747 378.874 591.655 379.435C589.564 379.997 587.433 380.268 585.264 380.268C583.405 380.268 581.565 380.055 579.705 379.61C577.846 379.164 576.122 378.506 574.495 377.634C572.868 376.763 571.396 375.659 570.079 374.342C568.762 373.025 567.736 371.475 566.98 369.713L572.326 367.272C572.83 368.473 573.546 369.519 574.476 370.39C575.406 371.281 576.451 372.017 577.633 372.657C578.814 373.276 580.073 373.741 581.39 374.051C582.707 374.361 584.044 374.497 585.38 374.497C586.813 374.497 588.227 374.342 589.622 374.012C591.016 373.683 592.256 373.199 593.379 372.521C594.483 371.843 595.393 371.01 596.091 370.022C596.788 369.035 597.175 367.853 597.272 366.517C597.311 366.188 597.35 365.897 597.35 365.607C597.35 364.27 597.078 363.127 596.517 362.198C595.858 361.094 594.928 360.184 593.708 359.486C592.488 358.789 591.055 358.247 589.428 357.859C587.801 357.472 586.135 357.085 584.431 356.717C582.436 356.31 580.461 355.806 578.524 355.264C576.587 354.722 574.825 353.928 573.275 352.901C571.726 351.875 570.467 350.577 569.479 348.969C568.511 347.362 568.026 345.348 568.026 342.888C568.162 340.757 568.743 338.859 569.769 337.232C570.796 335.586 572.094 334.211 573.701 333.107C575.309 332.003 577.11 331.151 579.124 330.57C581.138 329.989 583.211 329.698 585.341 329.698C587.143 329.698 588.963 329.911 590.803 330.318C592.643 330.744 594.347 331.364 595.955 332.235C597.563 333.088 598.996 334.172 600.293 335.47C601.591 336.768 602.618 338.278 603.354 339.983L598.066 342.346C597.563 341.183 596.846 340.176 595.955 339.324C595.045 338.472 594.038 337.736 592.895 337.136C591.752 336.535 590.551 336.09 589.254 335.78C587.956 335.47 586.658 335.334 585.361 335.334C583.927 335.334 582.533 335.489 581.197 335.819C579.86 336.148 578.64 336.632 577.575 337.271C576.51 337.91 575.638 338.724 574.96 339.712C574.282 340.68 573.914 341.823 573.817 343.12C573.817 343.275 573.817 343.469 573.817 343.643Z" fill="#354D7F"/>
<path d="M631.65 352.049H655.357V357.879H631.65V373.722H657.371V379.551H625.82V330.337H657.371V336.167H631.65V352.049Z" fill="#354D7F"/>
<path d="M685.938 379.59H680.108V330.376H685.938V352.126H711.659V330.376H717.489V379.59H711.659V357.898H685.938V379.59Z" fill="#354D7F"/>
<path d="M726.32 345.115C726.32 342.559 726.882 340.312 727.986 338.375C729.09 336.438 730.581 334.811 732.441 333.552C734.3 332.294 736.411 331.325 738.774 330.667C741.137 330.027 743.538 329.698 745.998 329.698C748.458 329.698 750.86 330.027 753.222 330.667C755.585 331.306 757.677 332.274 759.517 333.552C761.338 334.831 762.829 336.438 763.972 338.375C765.114 340.312 765.676 342.578 765.676 345.115V364.793C765.676 367.388 765.114 369.654 763.972 371.572C762.829 373.489 761.357 375.097 759.517 376.395C757.677 377.692 755.585 378.661 753.222 379.319C750.86 379.958 748.458 380.288 745.998 380.288C743.538 380.288 741.137 379.958 738.774 379.319C736.411 378.68 734.3 377.692 732.441 376.395C730.581 375.097 729.109 373.489 727.986 371.572C726.863 369.654 726.32 367.388 726.32 364.793V345.115ZM732.092 364.716C732.092 366.343 732.479 367.756 733.273 368.957C734.068 370.158 735.113 371.165 736.411 371.979C737.709 372.792 739.2 373.412 740.866 373.819C742.531 374.225 744.255 374.438 746.018 374.438C747.722 374.438 749.426 374.225 751.092 373.819C752.758 373.393 754.249 372.792 755.566 371.979C756.883 371.165 757.948 370.158 758.723 368.957C759.517 367.756 759.904 366.343 759.904 364.716V345.115C759.904 343.411 759.498 341.939 758.684 340.699C757.871 339.479 756.825 338.472 755.527 337.678C754.23 336.884 752.738 336.303 751.034 335.935C749.33 335.567 747.645 335.373 745.921 335.373C744.158 335.373 742.454 335.567 740.808 335.954C739.161 336.341 737.689 336.942 736.392 337.755C735.094 338.569 734.048 339.576 733.254 340.777C732.46 341.978 732.073 343.411 732.073 345.076V364.716H732.092Z" fill="#354D7F"/>
<path d="M790.874 336.206V379.571H785.045V336.206H769.26V330.376H806.659V336.206H790.874Z" fill="#354D7F"/>
<path d="M818.609 352.049H842.316V357.879H818.609V373.722H844.33V379.552H812.779V330.337H844.33V336.167H818.609V352.049ZM837.667 317.651L830.578 326.89H824.458L830.365 317.651H837.667Z" fill="#354D7F"/>
<path d="M858.235 379.59H852.464V330.376H858.235V379.59Z" fill="#354D7F"/>
<path d="M872.338 343.643C872.338 344.902 872.59 345.89 873.113 346.626C873.752 347.556 874.643 348.311 875.785 348.892C876.928 349.473 878.226 349.918 879.717 350.248C881.189 350.577 882.758 350.887 884.365 351.216C886.496 351.642 888.626 352.107 890.757 352.649C892.887 353.192 894.785 353.986 896.451 355.09C898.117 356.174 899.434 357.646 900.402 359.506C901.235 361.133 901.661 363.186 901.661 365.684C901.661 366.052 901.661 366.42 901.661 366.788C901.526 369.054 900.925 371.049 899.879 372.734C898.833 374.419 897.478 375.833 895.812 376.937C894.146 378.041 892.268 378.874 890.176 379.435C888.084 379.997 885.954 380.268 883.784 380.268C881.925 380.268 880.085 380.055 878.226 379.61C876.366 379.164 874.643 378.506 873.016 377.634C871.389 376.763 869.917 375.659 868.6 374.342C867.283 373.025 866.256 371.475 865.501 369.713L870.847 367.272C871.35 368.473 872.067 369.519 872.996 370.39C873.926 371.281 874.972 372.017 876.153 372.657C877.335 373.276 878.594 373.741 879.911 374.051C881.228 374.361 882.564 374.497 883.901 374.497C885.334 374.497 886.748 374.342 888.142 374.012C889.537 373.683 890.776 373.199 891.9 372.521C893.004 371.843 893.914 371.01 894.611 370.022C895.308 369.035 895.696 367.853 895.793 366.517C895.831 366.188 895.87 365.897 895.87 365.607C895.87 364.27 895.599 363.127 895.037 362.198C894.379 361.094 893.449 360.184 892.229 359.486C891.009 358.789 889.575 358.247 887.949 357.859C886.322 357.472 884.656 357.085 882.952 356.717C880.957 356.31 878.981 355.806 877.044 355.264C875.108 354.722 873.345 353.928 871.796 352.901C870.246 351.875 868.987 350.577 867.999 348.969C867.031 347.362 866.547 345.348 866.547 342.888C866.682 340.757 867.263 338.859 868.29 337.232C869.316 335.586 870.614 334.211 872.222 333.107C873.829 332.003 875.631 331.151 877.645 330.57C879.659 329.989 881.731 329.698 883.862 329.698C885.663 329.698 887.484 329.911 889.324 330.318C891.164 330.744 892.868 331.364 894.476 332.235C896.083 333.088 897.516 334.172 898.814 335.47C900.112 336.768 901.138 338.278 901.874 339.983L896.587 342.346C896.083 341.183 895.367 340.176 894.476 339.324C893.565 338.472 892.558 337.736 891.415 337.136C890.273 336.535 889.072 336.09 887.774 335.78C886.477 335.47 885.179 335.334 883.881 335.334C882.448 335.334 881.054 335.489 879.717 335.819C878.381 336.148 877.161 336.632 876.095 337.271C875.03 337.91 874.159 338.724 873.481 339.712C872.803 340.68 872.435 341.823 872.338 343.12C872.338 343.275 872.338 343.469 872.338 343.643Z" fill="#354D7F"/>
</svg>
