<svg width="941" height="368" viewBox="0 0 941 368" fill="none" xmlns="http://www.w3.org/2000/svg">
<path d="M0.990494 270.881C1.37785 276.905 4.78663 292.864 14.1026 309.578C18.1118 316.783 26.1689 329.508 39.8621 341.032C45.1496 345.487 50.747 349.419 56.6542 352.808C64.905 357.553 71.8194 360.168 74.4922 361.117C78.4432 362.531 90.7613 366.85 105.345 367.218C112.299 367.392 150.163 368.322 161.242 345.293C166.142 335.106 163.643 324.744 162.404 320.851C157.717 306.092 143.307 294.568 130.737 294.936C124.578 295.111 118.399 295.111 112.221 295.033C96.2618 294.859 84.7185 287.305 77.01 273.573C73.3688 267.104 72.6909 260.054 72.6909 252.772C72.7297 208.865 71.5676 118.28 72.8071 61.8226C72.9427 55.5668 72.6909 43.8878 64.8856 35.2497C51.5798 20.53 20.6684 19.7941 8.11793 33.6616C1.90079 40.5372 1.51343 49.5627 1.37786 53.9205C-0.965676 130.54 0.390082 247.853 0.390082 250.332C0.390082 255.232 0.390082 261.468 0.390082 261.468C0.390082 261.507 0.971126 270.455 0.990494 270.881Z" fill="white"/>
<path d="M417.094 194.843C410.199 194.843 403.343 194.765 396.486 194.862C391.722 194.92 387.19 194.048 383.064 191.666C373.148 185.933 367.376 177.624 367.318 165.849C367.299 163.699 367.396 161.549 367.299 159.399C366.718 144.95 379.888 131.064 394.685 130.483C408.553 129.921 422.381 129.998 436.133 131.916C445.468 133.213 450.562 139.004 451.395 148.32C452.053 155.835 451.627 163.369 452.169 170.904C453.758 193.274 460.943 213.591 473.92 231.874C477.154 236.426 477.27 237.355 473.61 241.558C455.249 262.592 432.53 276.304 405.008 281.359C368.577 288.041 335.187 280.527 305.747 257.944C279.194 237.568 263.118 210.55 258.528 177.276C249.638 112.819 291.512 53.4947 355.562 39.9564C381.437 34.4753 407.216 35.5986 431.833 45.9411C445.817 51.829 455.481 62.2877 457.941 78.0146C460.614 95.0972 448.896 111.211 431.814 114.291C423.001 115.879 414.537 114.523 406.306 111.366C392.129 105.963 377.893 105.343 363.716 111.037C343.631 119.133 331.487 138.385 331.913 160.91C332.301 181.091 341.346 196.334 358.758 206.173C376.944 216.438 402.2 211.828 416.222 196.373C416.532 195.927 417.075 195.617 417.094 194.843Z" fill="white"/>
<path d="M683.268 81.0357C677.768 74.2763 671.667 68.0979 664.888 62.6361C634.364 38.0387 599.657 29.5943 561.366 36.9929C533.554 42.3578 510.235 56.2059 491.816 77.8012C467.238 106.582 457.437 139.973 462.725 177.372C466.657 205.204 479.246 228.988 499.485 248.472C523.618 271.695 552.651 283.277 586.138 283.606C591.987 283.703 597.797 283.315 603.55 282.502C630.258 278.725 653.19 267.221 672.655 248.608C675.483 245.896 676.955 242.759 677.381 239.021C677.632 236.813 677.768 234.585 677.768 232.377C677.787 202.376 677.768 172.375 677.807 142.374C677.826 126.492 679.724 110.901 685.844 96.0653C688.13 90.5261 686.987 85.6066 683.268 81.0357ZM622.956 189.264C612.304 202.919 598.243 209.116 580.908 207.315C559.72 205.088 542.308 187.773 539.558 166.507C539.209 163.853 539.151 161.219 539.093 159.534C538.531 134.705 555.633 116.692 572.251 111.598C599.579 103.231 628.089 121.205 632.273 149.599C634.384 164.028 632.098 177.527 622.956 189.264Z" fill="white"/>
<path d="M941.001 74.9931C940.981 89.829 927.075 101.643 913.072 98.6802C909.682 97.9636 906.564 96.4916 903.523 94.884C891.941 88.7444 881.521 80.9391 871.256 72.8626C870.617 72.359 869.842 71.9135 871.101 71.1969C883.923 63.7402 896.764 56.361 911.038 51.9064C925.235 47.4711 940.923 58.7046 941.001 74.9931Z" fill="white"/>
<path d="M884.173 0.0193278C885.626 0.0193278 887.078 0.019368 888.531 0C905.361 1.78186 915.355 19.0581 908.305 34.1652C906.504 38.0388 903.405 40.8859 900.229 43.5587C889.867 52.2937 878.285 59.1693 866.509 65.7738C866.335 65.8707 866.103 65.8706 865.793 65.9287C864.805 60.7575 864.185 55.5862 863.662 50.3956C862.733 41.2539 862.171 32.1122 862.616 22.893C863.333 8.2508 874.47 0.929625 884.173 0.0193278Z" fill="white"/>
<path d="M879.776 191.782C879.776 175.068 879.893 158.334 879.738 141.619C879.602 126.628 877.723 111.85 872.552 97.6924C863.72 73.5017 848.226 55.3151 824.268 45.0888C806.352 37.4384 787.488 36.257 768.488 39.0266C735.485 43.8299 712.785 62.3651 699.673 92.7729C692.681 108.965 690.57 126.163 690.531 143.653C690.473 178.883 690.512 214.133 690.531 249.363C690.531 251.571 690.609 253.837 691.054 256.007C693.495 267.627 700.274 275.936 710.984 280.836C720.261 285.097 730.197 284.594 739.726 282.618C754.969 279.442 765.602 265.342 765.66 249.77C765.699 235.418 765.699 221.067 765.641 206.715C765.641 205.03 766.047 204.565 767.752 204.565C779.314 204.643 790.858 204.643 802.421 204.565C804.183 204.546 804.706 204.952 804.706 206.773C804.629 220.834 804.667 234.915 804.667 248.976C804.667 251.339 804.706 253.721 805.21 256.045C807.708 267.647 814.487 275.956 825.197 280.836C834.475 285.059 844.41 284.594 853.939 282.58C869.163 279.364 879.776 265.284 879.815 249.693C879.835 230.402 879.796 211.092 879.776 191.782ZM802.847 142.491C796.959 142.51 791.09 142.491 785.202 142.491C779.314 142.491 773.446 142.452 767.558 142.529C766.067 142.549 765.583 142.123 765.621 140.612C765.737 135.17 765.389 129.708 766.88 124.382C769.476 115.162 775.77 110.359 785.28 110.417C794.654 110.456 800.89 115.298 803.408 124.459C804.938 130.018 804.551 135.692 804.609 141.348C804.648 142.742 803.66 142.491 802.847 142.491Z" fill="white"/>
<path d="M273.905 242.546C273.963 241.248 273.595 240.222 272.781 239.215C268.656 233.966 264.995 228.388 261.819 222.5C247.951 196.779 243.167 169.432 247.506 140.535C249.985 123.975 255.524 108.461 264.066 94.0514C264.53 93.2573 264.763 92.5988 264.356 91.6885C255.001 70.5773 240.34 54.5794 218.938 45.3408C200.829 37.5161 181.79 36.2959 162.558 39.0462C131.937 43.404 109.877 60.0023 96.1254 87.5437C88.5719 102.67 85.2599 118.978 84.9113 135.77C84.5046 155.003 84.8145 174.235 84.8145 193.467C84.7757 193.467 84.737 193.467 84.6983 193.467C84.6983 212.274 84.6789 231.08 84.6983 249.887C84.7176 263.386 91.3221 272.973 102.633 279.675C111.755 285.078 121.865 284.323 131.588 283.083C146.966 281.127 160.04 266.078 159.749 249.673C159.498 235.322 159.73 220.97 159.653 206.618C159.653 205.011 160.059 204.585 161.667 204.585C173.288 204.662 184.928 204.662 196.549 204.585C198.311 204.565 198.834 205.011 198.834 206.831C198.757 221.338 198.989 235.825 198.737 250.332C198.505 264.335 209.235 278.687 224.09 282.677C229.455 284.129 234.936 283.393 240.359 283.587C254.982 284.129 269.624 272.295 273.052 257.363C274.253 252.443 273.711 247.485 273.905 242.546ZM198.853 141.329C198.853 142.704 197.885 142.491 197.033 142.491C191.067 142.491 185.121 142.491 179.156 142.491C173.346 142.491 167.535 142.433 161.706 142.53C160.04 142.568 159.672 142.045 159.691 140.457C159.769 134.937 159.517 129.398 161.066 124.014C163.623 115.163 169.918 110.437 179.137 110.398C188.433 110.359 194.67 114.949 197.323 123.82C199.066 129.553 198.834 135.46 198.853 141.329Z" fill="white"/>
<path d="M290 308.376H308.768C311.557 308.376 313.978 308.821 316.031 309.732C318.084 310.642 319.827 311.823 321.202 313.315C322.577 314.806 323.643 316.491 324.32 318.389C325.018 320.287 325.366 322.205 325.366 324.161C325.366 326.156 325.018 328.093 324.32 329.971C323.623 331.85 322.577 333.516 321.202 334.968C319.808 336.421 318.084 337.602 316.031 338.513C313.978 339.423 311.576 339.868 308.845 339.868H295.772V357.59H290V308.376ZM308.768 334.019C310.569 334.019 312.157 333.748 313.533 333.186C314.908 332.625 316.031 331.889 316.941 330.959C317.852 330.029 318.51 328.984 318.956 327.802C319.401 326.621 319.614 325.4 319.614 324.161C319.614 322.902 319.382 321.701 318.917 320.52C318.452 319.338 317.774 318.273 316.864 317.324C315.954 316.375 314.83 315.62 313.494 315.058C312.157 314.496 310.569 314.225 308.768 314.225H295.772V334.039H308.768V334.019Z" fill="white"/>
<path d="M366.175 357.59H360.055L354.361 341.805H335.38C334.45 344.401 333.521 347.035 332.572 349.688C331.623 352.361 330.712 354.976 329.821 357.571H323.643L341.307 308.357H348.395L366.175 357.59ZM352.346 335.976C351.649 334.077 351.01 332.276 350.41 330.552C349.809 328.848 349.209 327.124 348.628 325.401C348.047 323.696 347.446 321.953 346.826 320.191C346.207 318.428 345.548 316.569 344.851 314.632C343.592 318.254 342.372 321.779 341.171 325.226C339.97 328.674 338.692 332.257 337.355 335.956H352.346V335.976Z" fill="white"/>
<path d="M377.369 337.486V357.571H371.539V308.357H390.307C392.67 308.357 394.878 308.628 396.912 309.19C398.945 309.751 400.708 310.623 402.199 311.804C403.69 312.986 404.872 314.496 405.743 316.356C406.615 318.215 407.08 320.462 407.138 323.096C407.138 325.556 406.751 327.667 405.995 329.429C405.24 331.192 404.175 332.644 402.838 333.768C401.502 334.91 399.914 335.782 398.074 336.382C396.234 336.983 394.278 337.331 392.205 337.428L408.048 357.59H400.882L384.961 337.506H377.369V337.486ZM390.365 332.083C392.031 332.083 393.542 331.928 394.878 331.637C396.214 331.327 397.376 330.843 398.325 330.146C399.274 329.448 400.01 328.519 400.514 327.357C401.018 326.195 401.269 324.781 401.269 323.115C401.269 321.411 400.998 319.978 400.475 318.835C399.933 317.692 399.197 316.782 398.209 316.085C397.241 315.387 396.079 314.903 394.742 314.632C393.406 314.361 391.934 314.225 390.365 314.225H377.369V332.083H390.365Z" fill="white"/>
<path d="M452.439 342.774C452.439 344.71 452.11 346.473 451.471 348.022C450.832 349.572 449.941 350.947 448.837 352.167L452.652 357.029L448.624 359.876L444.944 355.285C443.181 356.254 441.264 357.009 439.172 357.513C437.081 358.016 434.95 358.268 432.781 358.268C430.321 358.268 427.919 357.939 425.557 357.3C423.194 356.661 421.083 355.673 419.223 354.375C417.364 353.078 415.892 351.47 414.769 349.552C413.645 347.635 413.103 345.369 413.103 342.774V323.096C413.103 320.539 413.665 318.293 414.769 316.356C415.873 314.419 417.364 312.792 419.223 311.533C421.083 310.255 423.194 309.306 425.557 308.647C427.919 307.989 430.321 307.679 432.781 307.679C435.241 307.679 437.642 308.008 440.005 308.647C442.368 309.286 444.46 310.255 446.3 311.533C448.12 312.811 449.612 314.419 450.754 316.356C451.897 318.293 452.459 320.559 452.459 323.096V342.774H452.439ZM446.668 342.774V323.096C446.668 321.391 446.261 319.919 445.448 318.68C444.634 317.46 443.588 316.453 442.291 315.658C440.993 314.864 439.502 314.283 437.817 313.915C436.132 313.547 434.427 313.354 432.703 313.354C430.941 313.354 429.236 313.547 427.59 313.935C425.944 314.322 424.472 314.923 423.174 315.717C421.877 316.511 420.831 317.518 420.056 318.738C419.262 319.958 418.875 321.411 418.875 323.076V342.754C418.875 344.381 419.262 345.795 420.056 346.996C420.85 348.197 421.877 349.204 423.174 350.017C424.472 350.831 425.963 351.431 427.629 351.819C429.295 352.206 431.018 352.419 432.781 352.419C434.35 352.419 435.899 352.322 437.41 352.148C438.921 351.954 440.296 351.586 441.555 351.044L437.449 345.892L441.477 342.909L445.37 347.848C446.222 346.454 446.668 344.769 446.668 342.774Z" fill="white"/>
<path d="M466.831 342.561C466.831 344.226 467.199 345.679 467.935 346.899C468.671 348.119 469.639 349.165 470.859 349.998C472.06 350.831 473.435 351.451 474.966 351.838C476.496 352.225 478.064 352.438 479.691 352.438C481.26 352.438 482.829 352.245 484.378 351.838C485.928 351.451 487.303 350.831 488.523 349.998C489.724 349.165 490.692 348.139 491.448 346.899C492.184 345.679 492.552 344.226 492.552 342.561V308.357H498.401V342.561C498.401 345.156 497.859 347.441 496.793 349.398C495.728 351.373 494.314 353.019 492.552 354.336C490.789 355.653 488.794 356.641 486.548 357.3C484.301 357.958 482.015 358.268 479.691 358.268C477.328 358.268 475.043 357.939 472.816 357.3C470.588 356.661 468.593 355.673 466.831 354.336C465.069 353.019 463.655 351.373 462.589 349.398C461.524 347.422 460.982 345.156 460.982 342.561V308.357H466.812V342.561H466.831Z" fill="white"/>
<path d="M514.147 330.049H537.853V335.879H514.147V351.722H539.867V357.551H508.317V308.337H539.867V314.167H514.147V330.049Z" fill="white"/>
<path d="M551.818 321.643C551.818 322.902 552.07 323.89 552.592 324.626C553.232 325.556 554.123 326.311 555.265 326.892C556.408 327.473 557.706 327.918 559.197 328.248C560.669 328.577 562.238 328.887 563.845 329.216C565.976 329.642 568.106 330.107 570.237 330.649C572.367 331.192 574.265 331.986 575.931 333.09C577.597 334.174 578.914 335.646 579.882 337.506C580.715 339.133 581.141 341.186 581.141 343.684C581.141 344.052 581.141 344.42 581.141 344.788C581.005 347.054 580.405 349.049 579.359 350.734C578.313 352.419 576.957 353.833 575.292 354.937C573.626 356.041 571.747 356.874 569.656 357.435C567.564 357.997 565.433 358.268 563.264 358.268C561.405 358.268 559.565 358.055 557.706 357.61C555.846 357.164 554.122 356.506 552.496 355.634C550.869 354.763 549.397 353.659 548.08 352.342C546.763 351.024 545.736 349.475 544.981 347.713L550.326 345.272C550.83 346.473 551.547 347.519 552.476 348.391C553.406 349.281 554.452 350.017 555.633 350.657C556.815 351.276 558.074 351.741 559.391 352.051C560.708 352.361 562.044 352.496 563.38 352.496C564.814 352.496 566.228 352.342 567.622 352.012C569.017 351.683 570.256 351.199 571.379 350.521C572.483 349.843 573.394 349.01 574.091 348.022C574.788 347.035 575.176 345.853 575.272 344.517C575.311 344.188 575.35 343.897 575.35 343.607C575.35 342.27 575.079 341.127 574.517 340.198C573.859 339.094 572.929 338.184 571.709 337.486C570.488 336.789 569.055 336.247 567.428 335.859C565.801 335.472 564.136 335.085 562.431 334.717C560.436 334.31 558.461 333.806 556.524 333.264C554.587 332.722 552.825 331.928 551.275 330.901C549.726 329.875 548.467 328.577 547.479 326.969C546.511 325.362 546.027 323.348 546.027 320.888C546.162 318.757 546.743 316.859 547.77 315.232C548.796 313.586 550.094 312.211 551.702 311.107C553.309 310.003 555.11 309.151 557.125 308.57C559.139 307.989 561.211 307.698 563.342 307.698C565.143 307.698 566.964 307.911 568.803 308.318C570.643 308.744 572.348 309.364 573.955 310.235C575.563 311.088 576.996 312.172 578.294 313.47C579.591 314.768 580.618 316.278 581.354 317.983L576.066 320.346C575.563 319.183 574.846 318.176 573.955 317.324C573.045 316.472 572.038 315.736 570.895 315.136C569.752 314.535 568.552 314.09 567.254 313.78C565.956 313.47 564.659 313.334 563.361 313.334C561.928 313.334 560.533 313.489 559.197 313.819C557.861 314.148 556.64 314.632 555.575 315.271C554.51 315.91 553.638 316.724 552.96 317.712C552.283 318.68 551.915 319.823 551.818 321.12C551.818 321.275 551.818 321.469 551.818 321.643Z" fill="white"/>
<path d="M609.65 330.049H633.357V335.879H609.65V351.722H635.371V357.551H603.821V308.337H635.371V314.167H609.65V330.049Z" fill="white"/>
<path d="M663.939 357.59H658.109V308.376H663.939V330.126H689.659V308.376H695.489V357.59H689.659V335.898H663.939V357.59Z" fill="white"/>
<path d="M704.321 323.115C704.321 320.559 704.882 318.312 705.986 316.375C707.09 314.438 708.582 312.811 710.441 311.552C712.3 310.294 714.411 309.325 716.774 308.667C719.137 308.028 721.539 307.698 723.999 307.698C726.458 307.698 728.86 308.028 731.223 308.667C733.586 309.306 735.677 310.274 737.517 311.552C739.338 312.831 740.829 314.438 741.972 316.375C743.115 318.312 743.677 320.578 743.677 323.115V342.793C743.677 345.388 743.115 347.654 741.972 349.572C740.829 351.489 739.357 353.097 737.517 354.395C735.677 355.692 733.586 356.661 731.223 357.319C728.86 357.958 726.458 358.288 723.999 358.288C721.539 358.288 719.137 357.958 716.774 357.319C714.411 356.68 712.3 355.692 710.441 354.395C708.582 353.097 707.11 351.489 705.986 349.572C704.863 347.654 704.321 345.388 704.321 342.793V323.115ZM710.092 342.716C710.092 344.343 710.48 345.756 711.274 346.957C712.068 348.158 713.114 349.165 714.411 349.979C715.709 350.792 717.2 351.412 718.866 351.819C720.532 352.225 722.255 352.438 724.018 352.438C725.722 352.438 727.427 352.225 729.092 351.819C730.758 351.393 732.249 350.792 733.566 349.979C734.883 349.165 735.949 348.158 736.723 346.957C737.517 345.756 737.905 344.343 737.905 342.716V323.115C737.905 321.411 737.498 319.939 736.685 318.699C735.871 317.479 734.825 316.472 733.528 315.678C732.23 314.884 730.739 314.303 729.034 313.935C727.33 313.567 725.645 313.373 723.921 313.373C722.159 313.373 720.454 313.567 718.808 313.954C717.162 314.341 715.69 314.942 714.392 315.755C713.094 316.569 712.048 317.576 711.254 318.777C710.46 319.978 710.073 321.411 710.073 323.076V342.716H710.092Z" fill="white"/>
<path d="M768.875 314.206V357.571H763.045V314.206H747.26V308.376H784.66V314.206H768.875Z" fill="white"/>
<path d="M796.609 330.049H820.316V335.879H796.609V351.722H822.33V357.552H790.78V308.337H822.33V314.167H796.609V330.049ZM815.668 295.651L808.579 304.89H802.459L808.366 295.651H815.668Z" fill="white"/>
<path d="M836.236 357.59H830.464V308.376H836.236V357.59Z" fill="white"/>
<path d="M850.338 321.643C850.338 322.902 850.59 323.89 851.113 324.626C851.752 325.556 852.643 326.311 853.786 326.892C854.929 327.473 856.226 327.918 857.718 328.248C859.189 328.577 860.758 328.887 862.366 329.216C864.496 329.642 866.627 330.107 868.757 330.649C870.888 331.192 872.786 331.986 874.451 333.09C876.117 334.174 877.434 335.646 878.403 337.506C879.235 339.133 879.661 341.186 879.661 343.684C879.661 344.052 879.661 344.42 879.661 344.788C879.526 347.054 878.925 349.049 877.88 350.734C876.834 352.419 875.478 353.833 873.812 354.937C872.147 356.041 870.268 356.874 868.176 357.435C866.085 357.997 863.954 358.268 861.785 358.268C859.925 358.268 858.085 358.055 856.226 357.61C854.367 357.164 852.643 356.506 851.016 355.634C849.389 354.763 847.917 353.659 846.6 352.342C845.283 351.024 844.257 349.475 843.501 347.713L848.847 345.272C849.35 346.473 850.067 347.519 850.997 348.391C851.926 349.281 852.972 350.017 854.154 350.657C855.335 351.276 856.594 351.741 857.911 352.051C859.228 352.361 860.565 352.496 861.901 352.496C863.334 352.496 864.748 352.342 866.143 352.012C867.537 351.683 868.777 351.199 869.9 350.521C871.004 349.843 871.914 349.01 872.612 348.022C873.309 347.035 873.696 345.853 873.793 344.517C873.832 344.188 873.87 343.897 873.87 343.607C873.87 342.27 873.599 341.127 873.038 340.198C872.379 339.094 871.449 338.184 870.229 337.486C869.009 336.789 867.576 336.247 865.949 335.859C864.322 335.472 862.656 335.085 860.952 334.717C858.957 334.31 856.982 333.806 855.045 333.264C853.108 332.722 851.345 331.928 849.796 330.901C848.247 329.875 846.988 328.577 846 326.969C845.031 325.362 844.547 323.348 844.547 320.888C844.683 318.757 845.264 316.859 846.29 315.232C847.317 313.586 848.614 312.211 850.222 311.107C851.83 310.003 853.631 309.151 855.645 308.57C857.659 307.989 859.732 307.698 861.862 307.698C863.663 307.698 865.484 307.911 867.324 308.318C869.164 308.744 870.868 309.364 872.476 310.235C874.083 311.088 875.517 312.172 876.814 313.47C878.112 314.768 879.139 316.278 879.875 317.983L874.587 320.346C874.083 319.183 873.367 318.176 872.476 317.324C871.566 316.472 870.558 315.736 869.416 315.136C868.273 314.535 867.072 314.09 865.775 313.78C864.477 313.47 863.179 313.334 861.882 313.334C860.448 313.334 859.054 313.489 857.718 313.819C856.381 314.148 855.161 314.632 854.096 315.271C853.03 315.91 852.159 316.724 851.481 317.712C850.803 318.68 850.435 319.823 850.338 321.12C850.338 321.275 850.338 321.469 850.338 321.643Z" fill="white"/>
</svg>
