<?xml version="1.0" encoding="utf-8"?>
<svg xmlns="http://www.w3.org/2000/svg" xmlns:xlink="http://www.w3.org/1999/xlink" style="margin: auto; background: transparent none repeat scroll 0% 0%; display: block; shape-rendering: auto;" width="264px" height="264px" viewBox="0 0 100 100" preserveAspectRatio="xMidYMid">
<g transform="rotate(0 50 50)">
  <rect x="49.5" y="36.5" rx="0" ry="0" width="1" height="1" fill="#00519a">
    <animate attributeName="opacity" values="1;0" keyTimes="0;1" dur="0.8695652173913042s" begin="-0.8606921029281276s" repeatCount="indefinite"></animate>
  </rect>
</g><g transform="rotate(3.673469387755102 50 50)">
  <rect x="49.5" y="36.5" rx="0" ry="0" width="1" height="1" fill="#00519a">
    <animate attributeName="opacity" values="1;0" keyTimes="0;1" dur="0.8695652173913042s" begin="-0.8518189884649511s" repeatCount="indefinite"></animate>
  </rect>
</g><g transform="rotate(7.346938775510204 50 50)">
  <rect x="49.5" y="36.5" rx="0" ry="0" width="1" height="1" fill="#00519a">
    <animate attributeName="opacity" values="1;0" keyTimes="0;1" dur="0.8695652173913042s" begin="-0.8429458740017745s" repeatCount="indefinite"></animate>
  </rect>
</g><g transform="rotate(11.020408163265307 50 50)">
  <rect x="49.5" y="36.5" rx="0" ry="0" width="1" height="1" fill="#00519a">
    <animate attributeName="opacity" values="1;0" keyTimes="0;1" dur="0.8695652173913042s" begin="-0.8340727595385979s" repeatCount="indefinite"></animate>
  </rect>
</g><g transform="rotate(14.693877551020408 50 50)">
  <rect x="49.5" y="36.5" rx="0" ry="0" width="1" height="1" fill="#00519a">
    <animate attributeName="opacity" values="1;0" keyTimes="0;1" dur="0.8695652173913042s" begin="-0.8251996450754213s" repeatCount="indefinite"></animate>
  </rect>
</g><g transform="rotate(18.367346938775512 50 50)">
  <rect x="49.5" y="36.5" rx="0" ry="0" width="1" height="1" fill="#00519a">
    <animate attributeName="opacity" values="1;0" keyTimes="0;1" dur="0.8695652173913042s" begin="-0.8163265306122448s" repeatCount="indefinite"></animate>
  </rect>
</g><g transform="rotate(22.040816326530614 50 50)">
  <rect x="49.5" y="36.5" rx="0" ry="0" width="1" height="1" fill="#00519a">
    <animate attributeName="opacity" values="1;0" keyTimes="0;1" dur="0.8695652173913042s" begin="-0.8074534161490682s" repeatCount="indefinite"></animate>
  </rect>
</g><g transform="rotate(25.714285714285715 50 50)">
  <rect x="49.5" y="36.5" rx="0" ry="0" width="1" height="1" fill="#00519a">
    <animate attributeName="opacity" values="1;0" keyTimes="0;1" dur="0.8695652173913042s" begin="-0.7985803016858917s" repeatCount="indefinite"></animate>
  </rect>
</g><g transform="rotate(29.387755102040817 50 50)">
  <rect x="49.5" y="36.5" rx="0" ry="0" width="1" height="1" fill="#00519a">
    <animate attributeName="opacity" values="1;0" keyTimes="0;1" dur="0.8695652173913042s" begin="-0.789707187222715s" repeatCount="indefinite"></animate>
  </rect>
</g><g transform="rotate(33.06122448979592 50 50)">
  <rect x="49.5" y="36.5" rx="0" ry="0" width="1" height="1" fill="#00519a">
    <animate attributeName="opacity" values="1;0" keyTimes="0;1" dur="0.8695652173913042s" begin="-0.7808340727595385s" repeatCount="indefinite"></animate>
  </rect>
</g><g transform="rotate(36.734693877551024 50 50)">
  <rect x="49.5" y="36.5" rx="0" ry="0" width="1" height="1" fill="#00519a">
    <animate attributeName="opacity" values="1;0" keyTimes="0;1" dur="0.8695652173913042s" begin="-0.7719609582963619s" repeatCount="indefinite"></animate>
  </rect>
</g><g transform="rotate(40.40816326530612 50 50)">
  <rect x="49.5" y="36.5" rx="0" ry="0" width="1" height="1" fill="#00519a">
    <animate attributeName="opacity" values="1;0" keyTimes="0;1" dur="0.8695652173913042s" begin="-0.7630878438331853s" repeatCount="indefinite"></animate>
  </rect>
</g><g transform="rotate(44.08163265306123 50 50)">
  <rect x="49.5" y="36.5" rx="0" ry="0" width="1" height="1" fill="#00519a">
    <animate attributeName="opacity" values="1;0" keyTimes="0;1" dur="0.8695652173913042s" begin="-0.7542147293700088s" repeatCount="indefinite"></animate>
  </rect>
</g><g transform="rotate(47.755102040816325 50 50)">
  <rect x="49.5" y="36.5" rx="0" ry="0" width="1" height="1" fill="#00519a">
    <animate attributeName="opacity" values="1;0" keyTimes="0;1" dur="0.8695652173913042s" begin="-0.7453416149068322s" repeatCount="indefinite"></animate>
  </rect>
</g><g transform="rotate(51.42857142857143 50 50)">
  <rect x="49.5" y="36.5" rx="0" ry="0" width="1" height="1" fill="#00519a">
    <animate attributeName="opacity" values="1;0" keyTimes="0;1" dur="0.8695652173913042s" begin="-0.7364685004436556s" repeatCount="indefinite"></animate>
  </rect>
</g><g transform="rotate(55.10204081632653 50 50)">
  <rect x="49.5" y="36.5" rx="0" ry="0" width="1" height="1" fill="#00519a">
    <animate attributeName="opacity" values="1;0" keyTimes="0;1" dur="0.8695652173913042s" begin="-0.727595385980479s" repeatCount="indefinite"></animate>
  </rect>
</g><g transform="rotate(58.775510204081634 50 50)">
  <rect x="49.5" y="36.5" rx="0" ry="0" width="1" height="1" fill="#00519a">
    <animate attributeName="opacity" values="1;0" keyTimes="0;1" dur="0.8695652173913042s" begin="-0.7187222715173025s" repeatCount="indefinite"></animate>
  </rect>
</g><g transform="rotate(62.44897959183673 50 50)">
  <rect x="49.5" y="36.5" rx="0" ry="0" width="1" height="1" fill="#00519a">
    <animate attributeName="opacity" values="1;0" keyTimes="0;1" dur="0.8695652173913042s" begin="-0.7098491570541259s" repeatCount="indefinite"></animate>
  </rect>
</g><g transform="rotate(66.12244897959184 50 50)">
  <rect x="49.5" y="36.5" rx="0" ry="0" width="1" height="1" fill="#00519a">
    <animate attributeName="opacity" values="1;0" keyTimes="0;1" dur="0.8695652173913042s" begin="-0.7009760425909494s" repeatCount="indefinite"></animate>
  </rect>
</g><g transform="rotate(69.79591836734694 50 50)">
  <rect x="49.5" y="36.5" rx="0" ry="0" width="1" height="1" fill="#00519a">
    <animate attributeName="opacity" values="1;0" keyTimes="0;1" dur="0.8695652173913042s" begin="-0.6921029281277727s" repeatCount="indefinite"></animate>
  </rect>
</g><g transform="rotate(73.46938775510205 50 50)">
  <rect x="49.5" y="36.5" rx="0" ry="0" width="1" height="1" fill="#00519a">
    <animate attributeName="opacity" values="1;0" keyTimes="0;1" dur="0.8695652173913042s" begin="-0.6832298136645961s" repeatCount="indefinite"></animate>
  </rect>
</g><g transform="rotate(77.14285714285714 50 50)">
  <rect x="49.5" y="36.5" rx="0" ry="0" width="1" height="1" fill="#00519a">
    <animate attributeName="opacity" values="1;0" keyTimes="0;1" dur="0.8695652173913042s" begin="-0.6743566992014196s" repeatCount="indefinite"></animate>
  </rect>
</g><g transform="rotate(80.81632653061224 50 50)">
  <rect x="49.5" y="36.5" rx="0" ry="0" width="1" height="1" fill="#00519a">
    <animate attributeName="opacity" values="1;0" keyTimes="0;1" dur="0.8695652173913042s" begin="-0.665483584738243s" repeatCount="indefinite"></animate>
  </rect>
</g><g transform="rotate(84.48979591836735 50 50)">
  <rect x="49.5" y="36.5" rx="0" ry="0" width="1" height="1" fill="#00519a">
    <animate attributeName="opacity" values="1;0" keyTimes="0;1" dur="0.8695652173913042s" begin="-0.6566104702750665s" repeatCount="indefinite"></animate>
  </rect>
</g><g transform="rotate(88.16326530612245 50 50)">
  <rect x="49.5" y="36.5" rx="0" ry="0" width="1" height="1" fill="#00519a">
    <animate attributeName="opacity" values="1;0" keyTimes="0;1" dur="0.8695652173913042s" begin="-0.6477373558118898s" repeatCount="indefinite"></animate>
  </rect>
</g><g transform="rotate(91.83673469387755 50 50)">
  <rect x="49.5" y="36.5" rx="0" ry="0" width="1" height="1" fill="#00519a">
    <animate attributeName="opacity" values="1;0" keyTimes="0;1" dur="0.8695652173913042s" begin="-0.6388642413487133s" repeatCount="indefinite"></animate>
  </rect>
</g><g transform="rotate(95.51020408163265 50 50)">
  <rect x="49.5" y="36.5" rx="0" ry="0" width="1" height="1" fill="#00519a">
    <animate attributeName="opacity" values="1;0" keyTimes="0;1" dur="0.8695652173913042s" begin="-0.6299911268855367s" repeatCount="indefinite"></animate>
  </rect>
</g><g transform="rotate(99.18367346938776 50 50)">
  <rect x="49.5" y="36.5" rx="0" ry="0" width="1" height="1" fill="#00519a">
    <animate attributeName="opacity" values="1;0" keyTimes="0;1" dur="0.8695652173913042s" begin="-0.6211180124223602s" repeatCount="indefinite"></animate>
  </rect>
</g><g transform="rotate(102.85714285714286 50 50)">
  <rect x="49.5" y="36.5" rx="0" ry="0" width="1" height="1" fill="#00519a">
    <animate attributeName="opacity" values="1;0" keyTimes="0;1" dur="0.8695652173913042s" begin="-0.6122448979591836s" repeatCount="indefinite"></animate>
  </rect>
</g><g transform="rotate(106.53061224489795 50 50)">
  <rect x="49.5" y="36.5" rx="0" ry="0" width="1" height="1" fill="#00519a">
    <animate attributeName="opacity" values="1;0" keyTimes="0;1" dur="0.8695652173913042s" begin="-0.603371783496007s" repeatCount="indefinite"></animate>
  </rect>
</g><g transform="rotate(110.20408163265306 50 50)">
  <rect x="49.5" y="36.5" rx="0" ry="0" width="1" height="1" fill="#00519a">
    <animate attributeName="opacity" values="1;0" keyTimes="0;1" dur="0.8695652173913042s" begin="-0.5944986690328304s" repeatCount="indefinite"></animate>
  </rect>
</g><g transform="rotate(113.87755102040816 50 50)">
  <rect x="49.5" y="36.5" rx="0" ry="0" width="1" height="1" fill="#00519a">
    <animate attributeName="opacity" values="1;0" keyTimes="0;1" dur="0.8695652173913042s" begin="-0.5856255545696538s" repeatCount="indefinite"></animate>
  </rect>
</g><g transform="rotate(117.55102040816327 50 50)">
  <rect x="49.5" y="36.5" rx="0" ry="0" width="1" height="1" fill="#00519a">
    <animate attributeName="opacity" values="1;0" keyTimes="0;1" dur="0.8695652173913042s" begin="-0.5767524401064773s" repeatCount="indefinite"></animate>
  </rect>
</g><g transform="rotate(121.22448979591837 50 50)">
  <rect x="49.5" y="36.5" rx="0" ry="0" width="1" height="1" fill="#00519a">
    <animate attributeName="opacity" values="1;0" keyTimes="0;1" dur="0.8695652173913042s" begin="-0.5678793256433007s" repeatCount="indefinite"></animate>
  </rect>
</g><g transform="rotate(124.89795918367346 50 50)">
  <rect x="49.5" y="36.5" rx="0" ry="0" width="1" height="1" fill="#00519a">
    <animate attributeName="opacity" values="1;0" keyTimes="0;1" dur="0.8695652173913042s" begin="-0.5590062111801242s" repeatCount="indefinite"></animate>
  </rect>
</g><g transform="rotate(128.57142857142858 50 50)">
  <rect x="49.5" y="36.5" rx="0" ry="0" width="1" height="1" fill="#00519a">
    <animate attributeName="opacity" values="1;0" keyTimes="0;1" dur="0.8695652173913042s" begin="-0.5501330967169475s" repeatCount="indefinite"></animate>
  </rect>
</g><g transform="rotate(132.24489795918367 50 50)">
  <rect x="49.5" y="36.5" rx="0" ry="0" width="1" height="1" fill="#00519a">
    <animate attributeName="opacity" values="1;0" keyTimes="0;1" dur="0.8695652173913042s" begin="-0.541259982253771s" repeatCount="indefinite"></animate>
  </rect>
</g><g transform="rotate(135.91836734693877 50 50)">
  <rect x="49.5" y="36.5" rx="0" ry="0" width="1" height="1" fill="#00519a">
    <animate attributeName="opacity" values="1;0" keyTimes="0;1" dur="0.8695652173913042s" begin="-0.5323868677905944s" repeatCount="indefinite"></animate>
  </rect>
</g><g transform="rotate(139.59183673469389 50 50)">
  <rect x="49.5" y="36.5" rx="0" ry="0" width="1" height="1" fill="#00519a">
    <animate attributeName="opacity" values="1;0" keyTimes="0;1" dur="0.8695652173913042s" begin="-0.5235137533274179s" repeatCount="indefinite"></animate>
  </rect>
</g><g transform="rotate(143.26530612244898 50 50)">
  <rect x="49.5" y="36.5" rx="0" ry="0" width="1" height="1" fill="#00519a">
    <animate attributeName="opacity" values="1;0" keyTimes="0;1" dur="0.8695652173913042s" begin="-0.5146406388642413s" repeatCount="indefinite"></animate>
  </rect>
</g><g transform="rotate(146.9387755102041 50 50)">
  <rect x="49.5" y="36.5" rx="0" ry="0" width="1" height="1" fill="#00519a">
    <animate attributeName="opacity" values="1;0" keyTimes="0;1" dur="0.8695652173913042s" begin="-0.5057675244010646s" repeatCount="indefinite"></animate>
  </rect>
</g><g transform="rotate(150.6122448979592 50 50)">
  <rect x="49.5" y="36.5" rx="0" ry="0" width="1" height="1" fill="#00519a">
    <animate attributeName="opacity" values="1;0" keyTimes="0;1" dur="0.8695652173913042s" begin="-0.49689440993788814s" repeatCount="indefinite"></animate>
  </rect>
</g><g transform="rotate(154.28571428571428 50 50)">
  <rect x="49.5" y="36.5" rx="0" ry="0" width="1" height="1" fill="#00519a">
    <animate attributeName="opacity" values="1;0" keyTimes="0;1" dur="0.8695652173913042s" begin="-0.48802129547471157s" repeatCount="indefinite"></animate>
  </rect>
</g><g transform="rotate(157.9591836734694 50 50)">
  <rect x="49.5" y="36.5" rx="0" ry="0" width="1" height="1" fill="#00519a">
    <animate attributeName="opacity" values="1;0" keyTimes="0;1" dur="0.8695652173913042s" begin="-0.479148181011535s" repeatCount="indefinite"></animate>
  </rect>
</g><g transform="rotate(161.6326530612245 50 50)">
  <rect x="49.5" y="36.5" rx="0" ry="0" width="1" height="1" fill="#00519a">
    <animate attributeName="opacity" values="1;0" keyTimes="0;1" dur="0.8695652173913042s" begin="-0.4702750665483584s" repeatCount="indefinite"></animate>
  </rect>
</g><g transform="rotate(165.30612244897958 50 50)">
  <rect x="49.5" y="36.5" rx="0" ry="0" width="1" height="1" fill="#00519a">
    <animate attributeName="opacity" values="1;0" keyTimes="0;1" dur="0.8695652173913042s" begin="-0.4614019520851818s" repeatCount="indefinite"></animate>
  </rect>
</g><g transform="rotate(168.9795918367347 50 50)">
  <rect x="49.5" y="36.5" rx="0" ry="0" width="1" height="1" fill="#00519a">
    <animate attributeName="opacity" values="1;0" keyTimes="0;1" dur="0.8695652173913042s" begin="-0.45252883762200524s" repeatCount="indefinite"></animate>
  </rect>
</g><g transform="rotate(172.6530612244898 50 50)">
  <rect x="49.5" y="36.5" rx="0" ry="0" width="1" height="1" fill="#00519a">
    <animate attributeName="opacity" values="1;0" keyTimes="0;1" dur="0.8695652173913042s" begin="-0.4436557231588287s" repeatCount="indefinite"></animate>
  </rect>
</g><g transform="rotate(176.3265306122449 50 50)">
  <rect x="49.5" y="36.5" rx="0" ry="0" width="1" height="1" fill="#00519a">
    <animate attributeName="opacity" values="1;0" keyTimes="0;1" dur="0.8695652173913042s" begin="-0.4347826086956521s" repeatCount="indefinite"></animate>
  </rect>
</g><g transform="rotate(180 50 50)">
  <rect x="49.5" y="36.5" rx="0" ry="0" width="1" height="1" fill="#00519a">
    <animate attributeName="opacity" values="1;0" keyTimes="0;1" dur="0.8695652173913042s" begin="-0.42590949423247554s" repeatCount="indefinite"></animate>
  </rect>
</g><g transform="rotate(183.6734693877551 50 50)">
  <rect x="49.5" y="36.5" rx="0" ry="0" width="1" height="1" fill="#00519a">
    <animate attributeName="opacity" values="1;0" keyTimes="0;1" dur="0.8695652173913042s" begin="-0.41703637976929897s" repeatCount="indefinite"></animate>
  </rect>
</g><g transform="rotate(187.3469387755102 50 50)">
  <rect x="49.5" y="36.5" rx="0" ry="0" width="1" height="1" fill="#00519a">
    <animate attributeName="opacity" values="1;0" keyTimes="0;1" dur="0.8695652173913042s" begin="-0.4081632653061224s" repeatCount="indefinite"></animate>
  </rect>
</g><g transform="rotate(191.0204081632653 50 50)">
  <rect x="49.5" y="36.5" rx="0" ry="0" width="1" height="1" fill="#00519a">
    <animate attributeName="opacity" values="1;0" keyTimes="0;1" dur="0.8695652173913042s" begin="-0.39929015084294583s" repeatCount="indefinite"></animate>
  </rect>
</g><g transform="rotate(194.69387755102042 50 50)">
  <rect x="49.5" y="36.5" rx="0" ry="0" width="1" height="1" fill="#00519a">
    <animate attributeName="opacity" values="1;0" keyTimes="0;1" dur="0.8695652173913042s" begin="-0.39041703637976927s" repeatCount="indefinite"></animate>
  </rect>
</g><g transform="rotate(198.3673469387755 50 50)">
  <rect x="49.5" y="36.5" rx="0" ry="0" width="1" height="1" fill="#00519a">
    <animate attributeName="opacity" values="1;0" keyTimes="0;1" dur="0.8695652173913042s" begin="-0.38154392191659264s" repeatCount="indefinite"></animate>
  </rect>
</g><g transform="rotate(202.0408163265306 50 50)">
  <rect x="49.5" y="36.5" rx="0" ry="0" width="1" height="1" fill="#00519a">
    <animate attributeName="opacity" values="1;0" keyTimes="0;1" dur="0.8695652173913042s" begin="-0.3726708074534161s" repeatCount="indefinite"></animate>
  </rect>
</g><g transform="rotate(205.71428571428572 50 50)">
  <rect x="49.5" y="36.5" rx="0" ry="0" width="1" height="1" fill="#00519a">
    <animate attributeName="opacity" values="1;0" keyTimes="0;1" dur="0.8695652173913042s" begin="-0.3637976929902395s" repeatCount="indefinite"></animate>
  </rect>
</g><g transform="rotate(209.3877551020408 50 50)">
  <rect x="49.5" y="36.5" rx="0" ry="0" width="1" height="1" fill="#00519a">
    <animate attributeName="opacity" values="1;0" keyTimes="0;1" dur="0.8695652173913042s" begin="-0.35492457852706294s" repeatCount="indefinite"></animate>
  </rect>
</g><g transform="rotate(213.0612244897959 50 50)">
  <rect x="49.5" y="36.5" rx="0" ry="0" width="1" height="1" fill="#00519a">
    <animate attributeName="opacity" values="1;0" keyTimes="0;1" dur="0.8695652173913042s" begin="-0.34605146406388637s" repeatCount="indefinite"></animate>
  </rect>
</g><g transform="rotate(216.73469387755102 50 50)">
  <rect x="49.5" y="36.5" rx="0" ry="0" width="1" height="1" fill="#00519a">
    <animate attributeName="opacity" values="1;0" keyTimes="0;1" dur="0.8695652173913042s" begin="-0.3371783496007098s" repeatCount="indefinite"></animate>
  </rect>
</g><g transform="rotate(220.40816326530611 50 50)">
  <rect x="49.5" y="36.5" rx="0" ry="0" width="1" height="1" fill="#00519a">
    <animate attributeName="opacity" values="1;0" keyTimes="0;1" dur="0.8695652173913042s" begin="-0.32830523513753324s" repeatCount="indefinite"></animate>
  </rect>
</g><g transform="rotate(224.08163265306123 50 50)">
  <rect x="49.5" y="36.5" rx="0" ry="0" width="1" height="1" fill="#00519a">
    <animate attributeName="opacity" values="1;0" keyTimes="0;1" dur="0.8695652173913042s" begin="-0.31943212067435667s" repeatCount="indefinite"></animate>
  </rect>
</g><g transform="rotate(227.75510204081633 50 50)">
  <rect x="49.5" y="36.5" rx="0" ry="0" width="1" height="1" fill="#00519a">
    <animate attributeName="opacity" values="1;0" keyTimes="0;1" dur="0.8695652173913042s" begin="-0.3105590062111801s" repeatCount="indefinite"></animate>
  </rect>
</g><g transform="rotate(231.42857142857142 50 50)">
  <rect x="49.5" y="36.5" rx="0" ry="0" width="1" height="1" fill="#00519a">
    <animate attributeName="opacity" values="1;0" keyTimes="0;1" dur="0.8695652173913042s" begin="-0.3016858917480035s" repeatCount="indefinite"></animate>
  </rect>
</g><g transform="rotate(235.10204081632654 50 50)">
  <rect x="49.5" y="36.5" rx="0" ry="0" width="1" height="1" fill="#00519a">
    <animate attributeName="opacity" values="1;0" keyTimes="0;1" dur="0.8695652173913042s" begin="-0.2928127772848269s" repeatCount="indefinite"></animate>
  </rect>
</g><g transform="rotate(238.77551020408163 50 50)">
  <rect x="49.5" y="36.5" rx="0" ry="0" width="1" height="1" fill="#00519a">
    <animate attributeName="opacity" values="1;0" keyTimes="0;1" dur="0.8695652173913042s" begin="-0.28393966282165034s" repeatCount="indefinite"></animate>
  </rect>
</g><g transform="rotate(242.44897959183675 50 50)">
  <rect x="49.5" y="36.5" rx="0" ry="0" width="1" height="1" fill="#00519a">
    <animate attributeName="opacity" values="1;0" keyTimes="0;1" dur="0.8695652173913042s" begin="-0.2750665483584738s" repeatCount="indefinite"></animate>
  </rect>
</g><g transform="rotate(246.12244897959184 50 50)">
  <rect x="49.5" y="36.5" rx="0" ry="0" width="1" height="1" fill="#00519a">
    <animate attributeName="opacity" values="1;0" keyTimes="0;1" dur="0.8695652173913042s" begin="-0.2661934338952972s" repeatCount="indefinite"></animate>
  </rect>
</g><g transform="rotate(249.79591836734693 50 50)">
  <rect x="49.5" y="36.5" rx="0" ry="0" width="1" height="1" fill="#00519a">
    <animate attributeName="opacity" values="1;0" keyTimes="0;1" dur="0.8695652173913042s" begin="-0.25732031943212064s" repeatCount="indefinite"></animate>
  </rect>
</g><g transform="rotate(253.46938775510205 50 50)">
  <rect x="49.5" y="36.5" rx="0" ry="0" width="1" height="1" fill="#00519a">
    <animate attributeName="opacity" values="1;0" keyTimes="0;1" dur="0.8695652173913042s" begin="-0.24844720496894407s" repeatCount="indefinite"></animate>
  </rect>
</g><g transform="rotate(257.14285714285717 50 50)">
  <rect x="49.5" y="36.5" rx="0" ry="0" width="1" height="1" fill="#00519a">
    <animate attributeName="opacity" values="1;0" keyTimes="0;1" dur="0.8695652173913042s" begin="-0.2395740905057675s" repeatCount="indefinite"></animate>
  </rect>
</g><g transform="rotate(260.81632653061223 50 50)">
  <rect x="49.5" y="36.5" rx="0" ry="0" width="1" height="1" fill="#00519a">
    <animate attributeName="opacity" values="1;0" keyTimes="0;1" dur="0.8695652173913042s" begin="-0.2307009760425909s" repeatCount="indefinite"></animate>
  </rect>
</g><g transform="rotate(264.48979591836735 50 50)">
  <rect x="49.5" y="36.5" rx="0" ry="0" width="1" height="1" fill="#00519a">
    <animate attributeName="opacity" values="1;0" keyTimes="0;1" dur="0.8695652173913042s" begin="-0.22182786157941434s" repeatCount="indefinite"></animate>
  </rect>
</g><g transform="rotate(268.16326530612247 50 50)">
  <rect x="49.5" y="36.5" rx="0" ry="0" width="1" height="1" fill="#00519a">
    <animate attributeName="opacity" values="1;0" keyTimes="0;1" dur="0.8695652173913042s" begin="-0.21295474711623777s" repeatCount="indefinite"></animate>
  </rect>
</g><g transform="rotate(271.83673469387753 50 50)">
  <rect x="49.5" y="36.5" rx="0" ry="0" width="1" height="1" fill="#00519a">
    <animate attributeName="opacity" values="1;0" keyTimes="0;1" dur="0.8695652173913042s" begin="-0.2040816326530612s" repeatCount="indefinite"></animate>
  </rect>
</g><g transform="rotate(275.51020408163265 50 50)">
  <rect x="49.5" y="36.5" rx="0" ry="0" width="1" height="1" fill="#00519a">
    <animate attributeName="opacity" values="1;0" keyTimes="0;1" dur="0.8695652173913042s" begin="-0.19520851818988463s" repeatCount="indefinite"></animate>
  </rect>
</g><g transform="rotate(279.18367346938777 50 50)">
  <rect x="49.5" y="36.5" rx="0" ry="0" width="1" height="1" fill="#00519a">
    <animate attributeName="opacity" values="1;0" keyTimes="0;1" dur="0.8695652173913042s" begin="-0.18633540372670804s" repeatCount="indefinite"></animate>
  </rect>
</g><g transform="rotate(282.85714285714283 50 50)">
  <rect x="49.5" y="36.5" rx="0" ry="0" width="1" height="1" fill="#00519a">
    <animate attributeName="opacity" values="1;0" keyTimes="0;1" dur="0.8695652173913042s" begin="-0.17746228926353147s" repeatCount="indefinite"></animate>
  </rect>
</g><g transform="rotate(286.53061224489795 50 50)">
  <rect x="49.5" y="36.5" rx="0" ry="0" width="1" height="1" fill="#00519a">
    <animate attributeName="opacity" values="1;0" keyTimes="0;1" dur="0.8695652173913042s" begin="-0.1685891748003549s" repeatCount="indefinite"></animate>
  </rect>
</g><g transform="rotate(290.2040816326531 50 50)">
  <rect x="49.5" y="36.5" rx="0" ry="0" width="1" height="1" fill="#00519a">
    <animate attributeName="opacity" values="1;0" keyTimes="0;1" dur="0.8695652173913042s" begin="-0.15971606033717833s" repeatCount="indefinite"></animate>
  </rect>
</g><g transform="rotate(293.8775510204082 50 50)">
  <rect x="49.5" y="36.5" rx="0" ry="0" width="1" height="1" fill="#00519a">
    <animate attributeName="opacity" values="1;0" keyTimes="0;1" dur="0.8695652173913042s" begin="-0.15084294587400174s" repeatCount="indefinite"></animate>
  </rect>
</g><g transform="rotate(297.55102040816325 50 50)">
  <rect x="49.5" y="36.5" rx="0" ry="0" width="1" height="1" fill="#00519a">
    <animate attributeName="opacity" values="1;0" keyTimes="0;1" dur="0.8695652173913042s" begin="-0.14196983141082517s" repeatCount="indefinite"></animate>
  </rect>
</g><g transform="rotate(301.2244897959184 50 50)">
  <rect x="49.5" y="36.5" rx="0" ry="0" width="1" height="1" fill="#00519a">
    <animate attributeName="opacity" values="1;0" keyTimes="0;1" dur="0.8695652173913042s" begin="-0.1330967169476486s" repeatCount="indefinite"></animate>
  </rect>
</g><g transform="rotate(304.8979591836735 50 50)">
  <rect x="49.5" y="36.5" rx="0" ry="0" width="1" height="1" fill="#00519a">
    <animate attributeName="opacity" values="1;0" keyTimes="0;1" dur="0.8695652173913042s" begin="-0.12422360248447203s" repeatCount="indefinite"></animate>
  </rect>
</g><g transform="rotate(308.57142857142856 50 50)">
  <rect x="49.5" y="36.5" rx="0" ry="0" width="1" height="1" fill="#00519a">
    <animate attributeName="opacity" values="1;0" keyTimes="0;1" dur="0.8695652173913042s" begin="-0.11535048802129545s" repeatCount="indefinite"></animate>
  </rect>
</g><g transform="rotate(312.2448979591837 50 50)">
  <rect x="49.5" y="36.5" rx="0" ry="0" width="1" height="1" fill="#00519a">
    <animate attributeName="opacity" values="1;0" keyTimes="0;1" dur="0.8695652173913042s" begin="-0.10647737355811888s" repeatCount="indefinite"></animate>
  </rect>
</g><g transform="rotate(315.9183673469388 50 50)">
  <rect x="49.5" y="36.5" rx="0" ry="0" width="1" height="1" fill="#00519a">
    <animate attributeName="opacity" values="1;0" keyTimes="0;1" dur="0.8695652173913042s" begin="-0.09760425909494232s" repeatCount="indefinite"></animate>
  </rect>
</g><g transform="rotate(319.59183673469386 50 50)">
  <rect x="49.5" y="36.5" rx="0" ry="0" width="1" height="1" fill="#00519a">
    <animate attributeName="opacity" values="1;0" keyTimes="0;1" dur="0.8695652173913042s" begin="-0.08873114463176573s" repeatCount="indefinite"></animate>
  </rect>
</g><g transform="rotate(323.265306122449 50 50)">
  <rect x="49.5" y="36.5" rx="0" ry="0" width="1" height="1" fill="#00519a">
    <animate attributeName="opacity" values="1;0" keyTimes="0;1" dur="0.8695652173913042s" begin="-0.07985803016858917s" repeatCount="indefinite"></animate>
  </rect>
</g><g transform="rotate(326.9387755102041 50 50)">
  <rect x="49.5" y="36.5" rx="0" ry="0" width="1" height="1" fill="#00519a">
    <animate attributeName="opacity" values="1;0" keyTimes="0;1" dur="0.8695652173913042s" begin="-0.07098491570541259s" repeatCount="indefinite"></animate>
  </rect>
</g><g transform="rotate(330.61224489795916 50 50)">
  <rect x="49.5" y="36.5" rx="0" ry="0" width="1" height="1" fill="#00519a">
    <animate attributeName="opacity" values="1;0" keyTimes="0;1" dur="0.8695652173913042s" begin="-0.06211180124223602s" repeatCount="indefinite"></animate>
  </rect>
</g><g transform="rotate(334.2857142857143 50 50)">
  <rect x="49.5" y="36.5" rx="0" ry="0" width="1" height="1" fill="#00519a">
    <animate attributeName="opacity" values="1;0" keyTimes="0;1" dur="0.8695652173913042s" begin="-0.05323868677905944s" repeatCount="indefinite"></animate>
  </rect>
</g><g transform="rotate(337.9591836734694 50 50)">
  <rect x="49.5" y="36.5" rx="0" ry="0" width="1" height="1" fill="#00519a">
    <animate attributeName="opacity" values="1;0" keyTimes="0;1" dur="0.8695652173913042s" begin="-0.04436557231588287s" repeatCount="indefinite"></animate>
  </rect>
</g><g transform="rotate(341.6326530612245 50 50)">
  <rect x="49.5" y="36.5" rx="0" ry="0" width="1" height="1" fill="#00519a">
    <animate attributeName="opacity" values="1;0" keyTimes="0;1" dur="0.8695652173913042s" begin="-0.03549245785270629s" repeatCount="indefinite"></animate>
  </rect>
</g><g transform="rotate(345.3061224489796 50 50)">
  <rect x="49.5" y="36.5" rx="0" ry="0" width="1" height="1" fill="#00519a">
    <animate attributeName="opacity" values="1;0" keyTimes="0;1" dur="0.8695652173913042s" begin="-0.02661934338952972s" repeatCount="indefinite"></animate>
  </rect>
</g><g transform="rotate(348.9795918367347 50 50)">
  <rect x="49.5" y="36.5" rx="0" ry="0" width="1" height="1" fill="#00519a">
    <animate attributeName="opacity" values="1;0" keyTimes="0;1" dur="0.8695652173913042s" begin="-0.017746228926353146s" repeatCount="indefinite"></animate>
  </rect>
</g><g transform="rotate(352.6530612244898 50 50)">
  <rect x="49.5" y="36.5" rx="0" ry="0" width="1" height="1" fill="#00519a">
    <animate attributeName="opacity" values="1;0" keyTimes="0;1" dur="0.8695652173913042s" begin="-0.008873114463176573s" repeatCount="indefinite"></animate>
  </rect>
</g><g transform="rotate(356.3265306122449 50 50)">
  <rect x="49.5" y="36.5" rx="0" ry="0" width="1" height="1" fill="#00519a">
    <animate attributeName="opacity" values="1;0" keyTimes="0;1" dur="0.8695652173913042s" begin="0s" repeatCount="indefinite"></animate>
  </rect>
</g>
<!-- [ldio] generated by https://loading.io/ --></svg>